<svg width="640" height="640" xmlns="http://www.w3.org/2000/svg">
 <g>
  <title>Buffer</title>
  <path d="m296.5,69.2c14.9,-6.9 32.1,-6.9 47,0l218.6,101c8.5,3.9 13.9,12.4 13.9,21.8c0,9.4 -5.4,17.9 -13.9,21.8l-218.6,101c-14.9,6.9 -32.1,6.9 -47,0l-218.6,-101c-8.5,-4 -13.9,-12.5 -13.9,-21.8c0,-9.3 5.4,-17.9 13.9,-21.8l218.6,-101zm-184.4,213.2l164.3,75.9c27.7,12.8 59.6,12.8 87.3,0l164.3,-75.9l34.1,15.8c8.5,3.9 13.9,12.4 13.9,21.8c0,9.4 -5.4,17.9 -13.9,21.8l-218.6,101c-14.9,6.9 -32.1,6.9 -47,0l-218.6,-101c-8.5,-4 -13.9,-12.5 -13.9,-21.8c0,-9.3 5.4,-17.9 13.9,-21.8l34.1,-15.8l0.1,0zm-34.2,143.8l34.1,-15.8l164.3,75.9c27.7,12.8 59.6,12.8 87.3,0l164.3,-75.9l34.1,15.8c8.5,3.9 13.9,12.4 13.9,21.8c0,9.4 -5.4,17.9 -13.9,21.8l-218.6,101c-14.9,6.9 -32.1,6.9 -47,0l-218.5,-101c-8.5,-4 -13.9,-12.5 -13.9,-21.8c0,-9.3 5.4,-17.9 13.9,-21.8z" id="svg_1" stroke-width="10" stroke="#000000" fill="#ffffff"/>
 </g>

</svg>