<svg xmlns="http://www.w3.org/2000/svg" width="64" height="64" style="--darkreader-inline-fill:var(--darkreader-background-000000, #000000)" viewBox="0 0 24 24"><title>freeCodeCamp icon</title><path d="M19.885 3.906a.62.62 0 0 0-.354.12c-.08.08-.161.196-.161.313 0 .2.236.474.673.923 1.822 1.754 2.738 3.903 2.732 6.494-.007 2.867-.97 5.17-2.844 6.954-.394.353-.556.63-.557.867 0 .116.08.237.16.353a.58.58 0 0 0 .353.162c.434 0 1.04-.512 1.833-1.509 1.542-1.89 2.24-3.978 2.279-6.824.036-2.847-.857-4.777-2.603-6.77-.63-.712-1.153-1.082-1.511-1.083m-15.769.002c-.358 0-.882.37-1.51 1.083C.858 6.984-.035 8.914.001 11.761c.04 2.846.737 4.933 2.28 6.824.791.997 1.398 1.51 1.832 1.509a.57.57 0 0 0 .352-.162c.08-.116.16-.237.16-.353 0-.237-.162-.514-.556-.866-1.873-1.785-2.837-4.087-2.844-6.955-.006-2.591.91-4.74 2.732-6.494.437-.449.674-.722.673-.923 0-.117-.08-.233-.161-.313a.62.62 0 0 0-.354-.12zm7.056.895s.655 2.081-2.649 6.727c-3.156 4.433 1.045 7.15 1.432 7.386-.281-.18-2.001-1.5.402-5.423.466-.77 1.076-1.47 1.834-3.041 0 0 .67.946.32 2.998-.523 3.101 2.271 2.214 2.314 2.257.976 1.15-.808 3.17-.917 3.233-.108.061 5.096-3.13 1.399-7.935-.253.253-.582 1.442-1.267 1.266-.684-.174 2.125-3.494-2.868-7.468M9.955 18.916q.036.024.038.024z"/><path d="M0 0h24v24H0z" style="fill:#000;stroke-width:0"/><path d="M10.593 53.502c-.727-.18-1.572-.795-2.727-1.983-1.627-1.674-3.425-4.09-4.514-6.068C1.048 41.266-.093 35.975.058 30.173c.167-6.418 2.082-11.19 6.598-16.44 1.53-1.78 2.777-2.825 3.767-3.157.396-.133.491-.141.843-.069.321.066.451.138.688.384.69.717.474 1.134-1.85 3.548-1.438 1.495-2.152 2.365-3.092 3.772a22.3 22.3 0 0 0-3.25 7.802c-.415 2.04-.459 2.55-.458 5.39.001 2.3.02 2.733.159 3.758.667 4.903 2.29 8.808 5.136 12.365.293.367 1.134 1.284 1.869 2.037 1.46 1.498 1.79 1.967 1.802 2.553.017.852-.87 1.585-1.677 1.386M37.76 49.88c0-.019.139-.216.308-.439 1.622-2.139 2.457-4.345 2.23-5.895-.078-.535-.343-1.196-.625-1.555l-.126-.161-.665.108c-.855.138-2.213.139-2.801 0-1.421-.335-2.296-1.211-2.687-2.692-.195-.741-.194-2.109.003-3.366.397-2.532.342-4.606-.167-6.374-.19-.662-.62-1.65-.718-1.65-.031 0-.23.353-.442.786-.673 1.373-1.587 2.906-3.089 5.185-1.589 2.41-2.048 3.177-2.796 4.671-2.252 4.497-2.57 8.367-.881 10.738.133.188.225.358.205.379-.021.02-.253-.136-.515-.348-2.402-1.945-4.176-4.469-4.9-6.975-.311-1.075-.413-1.81-.415-2.986-.004-2.038.426-3.75 1.467-5.833.547-1.095.838-1.574 1.792-2.948 4.765-6.862 7.164-12.571 7.005-16.671-.032-.827-.025-.892.08-.805 4.036 3.314 6.498 6.704 7.41 10.205.34 1.31.422 1.95.424 3.337.003 1.44-.086 2.174-.487 4.04-.133.617-.241 1.3-.241 1.516 0 .516.115.626.658.626.81 0 1.425-.536 2.158-1.881.163-.299.42-.759.573-1.023l.277-.48.4.55c1.53 2.104 2.444 4.1 2.937 6.417.197.924.178 3.433-.032 4.377-.7 3.14-2.539 6.017-5.425 8.49-.732.628-.914.759-.914.657M52.778 53.498c-.413-.125-.677-.356-.888-.779-.413-.825-.17-1.296 1.608-3.12 1.491-1.531 2.269-2.471 3.196-3.865 2.096-3.15 3.269-6.373 3.836-10.538.186-1.365.26-4.77.137-6.234-.357-4.243-1.71-7.997-4.104-11.395-.704-1-1.505-1.938-2.83-3.319-1.756-1.828-2.132-2.356-2.024-2.848.077-.35.573-.795.998-.895.842-.198 1.887.39 3.428 1.928 2.342 2.339 4.5 5.405 5.755 8.18 1.614 3.57 2.297 7.797 2.012 12.476-.247 4.075-.93 7.217-2.23 10.257-1.216 2.841-3.342 5.95-5.677 8.3-1.07 1.077-1.75 1.576-2.446 1.792-.455.142-.49.144-.77.06" style="fill:#fff;stroke-width:0" transform="scale(.375)"/></svg>