<svg xmlns="http://www.w3.org/2000/svg" width="47" height="23" preserveAspectRatio="xMidYMid" viewBox="0 -201 376 184"><path d="M0-201h376v184H0z" style="fill:#000;stroke-width:0"/><path fill="#706d6e" d="M369.856-59.367v-9.003h-11.18v-13.995l-.375.116-10.5 3.212-.207.063v10.604H331.02v-5.906c0-2.75.616-4.856 1.827-6.26 1.204-1.387 2.926-2.092 5.122-2.092 1.579 0 3.213.372 4.858 1.106l.412.183v-9.48l-.194-.071c-1.534-.552-3.622-.83-6.208-.83-3.261 0-6.224.71-8.807 2.116-2.586 1.408-4.62 3.418-6.044 5.975-1.42 2.553-2.14 5.502-2.14 8.765v6.494h-7.784v9.003h7.784v37.924h11.174v-37.924h16.573v24.1c0 9.925 4.682 14.956 13.915 14.956 1.517 0 3.114-.179 4.745-.527 1.659-.357 2.79-.714 3.455-1.096l.147-.086v-9.086l-.454.3c-.607.406-1.362.736-2.248.98-.89.25-1.632.376-2.207.376-2.163 0-3.763-.583-4.757-1.733-1.004-1.16-1.513-3.19-1.513-6.03v-22.154ZM287.108-29.45c-4.056 0-7.254-1.345-9.507-3.994-2.267-2.663-3.416-6.459-3.416-11.282 0-4.975 1.149-8.87 3.417-11.58 2.255-2.691 5.422-4.058 9.415-4.058 3.875 0 6.959 1.305 9.168 3.88 2.22 2.59 3.347 6.453 3.347 11.487 0 5.096-1.06 9.01-3.149 11.628-2.075 2.599-5.195 3.92-9.275 3.92m.498-40.051c-7.739 0-13.885 2.267-18.266 6.739-4.38 4.473-6.6 10.662-6.6 18.397 0 7.347 2.167 13.257 6.442 17.562 4.276 4.308 10.094 6.49 17.292 6.49 7.5 0 13.524-2.3 17.905-6.833 4.38-4.53 6.598-10.66 6.598-18.215 0-7.462-2.082-13.416-6.19-17.693-4.11-4.278-9.893-6.447-17.181-6.447m-42.883 0c-5.264 0-9.617 1.346-12.944 4-3.346 2.67-5.043 6.173-5.043 10.411 0 2.203.366 4.16 1.088 5.82.725 1.665 1.848 3.131 3.339 4.362 1.48 1.22 3.764 2.499 6.792 3.8 2.545 1.047 4.443 1.933 5.649 2.631 1.178.684 2.015 1.372 2.487 2.042.459.656.692 1.552.692 2.66 0 3.153-2.36 4.686-7.218 4.686-1.802 0-3.858-.375-6.11-1.117a23 23 0 0 1-6.255-3.173l-.464-.332v10.758l.17.08c1.582.73 3.575 1.344 5.924 1.829 2.345.485 4.476.732 6.327.732 5.712 0 10.311-1.353 13.667-4.024 3.378-2.688 5.09-6.273 5.09-10.659 0-3.163-.922-5.875-2.738-8.063-1.804-2.17-4.935-4.162-9.302-5.923-3.479-1.396-5.708-2.555-6.627-3.445-.886-.86-1.336-2.075-1.336-3.614 0-1.365.555-2.458 1.696-3.344 1.149-.89 2.748-1.342 4.755-1.342 1.862 0 3.767.294 5.661.87s3.556 1.348 4.944 2.292l.456.312v-10.205l-.175-.076c-1.28-.549-2.969-1.018-5.02-1.4-2.042-.377-3.895-.568-5.505-.568M197.604-29.45c-4.055 0-7.253-1.345-9.506-3.994-2.268-2.663-3.415-6.457-3.415-11.282 0-4.975 1.148-8.87 3.417-11.58 2.253-2.691 5.42-4.058 9.415-4.058 3.873 0 6.957 1.305 9.167 3.88 2.22 2.59 3.347 6.453 3.347 11.487 0 5.096-1.06 9.01-3.15 11.628-2.074 2.599-5.193 3.92-9.275 3.92m.5-40.051c-7.74 0-13.887 2.267-18.267 6.739-4.379 4.473-6.601 10.662-6.601 18.397 0 7.35 2.169 13.257 6.444 17.562 4.275 4.308 10.093 6.49 17.291 6.49 7.5 0 13.525-2.3 17.905-6.833 4.379-4.53 6.599-10.66 6.599-18.215 0-7.462-2.083-13.416-6.192-17.693-4.112-4.278-9.892-6.447-17.18-6.447m-41.83 9.257v-8.127h-11.04v46.925h11.04v-24.003c0-4.082.925-7.435 2.75-9.968 1.804-2.503 4.206-3.77 7.14-3.77.994 0 2.11.163 3.318.488 1.197.322 2.063.672 2.575 1.04l.463.336V-68.45l-.179-.077c-1.028-.437-2.482-.657-4.322-.657-2.773 0-5.256.891-7.382 2.646-1.866 1.542-3.216 3.657-4.247 6.295zM125.467-69.5c-5.064 0-9.581 1.086-13.424 3.226-3.85 2.145-6.827 5.209-8.853 9.104-2.016 3.886-3.04 8.424-3.04 13.486 0 4.433.993 8.502 2.955 12.088 1.963 3.592 4.742 6.402 8.26 8.35 3.512 1.947 7.572 2.935 12.067 2.935 5.246 0 9.724-1.05 13.316-3.117l.144-.084v-10.113l-.463.339a20.8 20.8 0 0 1-5.4 2.812c-1.951.68-3.73 1.025-5.29 1.025-4.33 0-7.808-1.356-10.332-4.027-2.53-2.676-3.812-6.432-3.812-11.16 0-4.757 1.338-8.61 3.974-11.454 2.627-2.834 6.11-4.272 10.352-4.272 3.629 0 7.164 1.228 10.51 3.655l.461.336v-10.655l-.149-.085c-1.259-.704-2.975-1.286-5.107-1.727-2.121-.44-4.197-.662-6.17-.662m-32.92 1.13H81.51v46.925H92.55Zm-5.406-19.99c-1.817 0-3.401.618-4.703 1.844-1.307 1.23-1.97 2.777-1.97 4.603 0 1.797.655 3.316 1.95 4.512 1.285 1.193 2.875 1.798 4.723 1.798s3.443-.605 4.745-1.796c1.31-1.198 1.974-2.717 1.974-4.514 0-1.763-.646-3.295-1.92-4.553-1.273-1.257-2.888-1.894-4.799-1.894m-27.54 16.528v50.387h11.264v-65.478h-15.59L35.456-38.288 16.226-86.923H0v65.478h10.586v-50.391h.364l20.308 50.391h7.989l19.99-50.387Z"/><path fill="#f1511b" d="M183.927-149.073H132V-201h51.927z"/><path fill="#80cc28" d="M241.26-149.073h-51.926V-201h51.926z"/><path fill="#00adef" d="M183.925-91.72H132v-51.926h51.925z"/><path fill="#fbbc09" d="M241.26-91.72h-51.926v-51.926h51.926z"/><path d="M.035 18.37v-4.077l.99.019.99.02 1.18 2.985c.647 1.642 1.205 2.981 1.238 2.975.065-.012.132-.168 1.539-3.625l.965-2.37h1.88v8.149H7.482v-3.162c0-1.738-.025-3.161-.056-3.161s-.621 1.424-1.312 3.164l-1.256 3.165-.46-.021-.462-.02-1.265-3.144c-.696-1.73-1.29-3.144-1.319-3.144S1.3 17.546 1.3 19.284v3.162H.035ZM10.222 19.53v-2.915h1.335v5.831h-1.335zM10.486 15.521c-.422-.229-.51-.825-.17-1.145a.81.81 0 0 1 1.2.067c.532.633-.28 1.485-1.03 1.078M15.104 22.534c-1.692-.14-2.804-1.699-2.5-3.503.166-.988.725-1.789 1.529-2.193.833-.419 1.962-.477 2.78-.144.19.077.193.089.193.69v.612l-.432-.215c-.815-.403-1.801-.248-2.305.364-.298.361-.424.792-.423 1.45 0 .685.191 1.164.595 1.496.544.449 1.457.493 2.173.105l.392-.212v1.163l-.349.15c-.309.133-.528.178-1.196.243-.097.01-.302.006-.457-.006M18.16 19.53v-2.915h1.335v.491c0 .281.03.492.07.492.039 0 .07-.032.07-.072 0-.17.4-.653.675-.814.249-.145.372-.171.743-.153l.444.02.02.64.02.641-.37-.096c-.662-.172-1.094.014-1.426.613l-.21.38-.024 1.845-.022 1.844H18.16ZM23.563 22.383c-1.328-.425-2.054-1.745-1.83-3.327.195-1.382 1.001-2.257 2.314-2.515.576-.113 1.416-.051 1.925.141 1.01.381 1.672 1.464 1.672 2.737 0 1.506-.791 2.66-2.054 2.997-.52.138-1.542.122-2.027-.033m1.906-1.079c.567-.287.8-.826.796-1.847-.004-1.075-.395-1.682-1.205-1.869-.735-.17-1.446.153-1.789.811-.211.407-.259 1.495-.087 2.011.142.428.552.875.892.973.44.127 1.055.092 1.393-.079M29.438 22.503c-.23-.031-.57-.106-.755-.168l-.336-.111v-1.252l.228.141c.316.194 1.065.42 1.397.42.564 0 .904-.258.904-.685 0-.3-.224-.49-1.012-.858-1.145-.536-1.464-.912-1.464-1.724 0-.707.388-1.266 1.106-1.594.292-.133.47-.16 1.054-.158.386.001.837.041 1 .09l.3.086v1.176l-.3-.146q-.297-.146-.864-.177c-.526-.029-.58-.019-.771.145-.163.14-.205.234-.205.456 0 .154.047.336.104.405.057.07.428.277.824.462.873.408 1.173.628 1.372 1.005.221.422.212 1.097-.02 1.513-.42.748-1.413 1.126-2.562.974M35.352 22.505a2.68 2.68 0 0 1-2.425-2.424c-.118-1.143.122-2.03.723-2.68.623-.673 1.443-.971 2.495-.908.873.052 1.34.248 1.869.784.553.56.734 1.009.783 1.941.057 1.095-.195 1.864-.818 2.496-.62.628-1.526.9-2.627.79m1.258-1.177c.595-.27.919-1.052.85-2.052-.065-.966-.46-1.516-1.205-1.683-.774-.173-1.47.147-1.807.83-.143.29-.165.439-.165 1.107 0 .722.014.797.204 1.14.31.56.704.779 1.412.785.269.003.526-.043.71-.127M44.8 22.507c-.537-.068-.897-.33-1.125-.822-.182-.392-.185-.429-.212-2.208l-.027-1.809h-2.092v4.778h-1.335v-4.778h-.984v-1.053h.965l.033-.72c.028-.595.065-.782.214-1.072.374-.728.978-1.093 1.83-1.106.802-.012.822.003.822.613v.515l-.419-.038c-.829-.075-1.07.176-1.114 1.158l-.03.65h2.125v-1.319l.59-.183c.324-.102.625-.184.667-.184.053 0 .078.275.078.843v.843h1.405v1.053h-1.414l.023 1.634c.024 1.749.059 1.934.383 2.082.212.096.588.1.828.01l.18-.069v.52c0 .468-.015.526-.148.568-.302.096-.882.14-1.243.094" style="fill:#fff;stroke-width:0" transform="matrix(8 0 0 8 0 -201)"/></svg>