<!DOCTYPE svg PUBLIC "-//W3C//DTD SVG 1.1//EN" "http://www.w3.org/Graphics/SVG/1.1/DTD/svg11.dtd">
<!-- Uploaded to: SVG Repo, www.svgrepo.com, Transformed by: SVG Repo Mixer Tools -->
<svg height="800px" width="800px" version="1.1" id="Layer_1" xmlns="http://www.w3.org/2000/svg" xmlns:xlink="http://www.w3.org/1999/xlink" viewBox="0 0 512 512" xml:space="preserve" fill="#000000" style="--darkreader-inline-fill: var(--darkreader-background-000000, #000000);" data-darkreader-inline-fill="">
<g id="SVGRepo_bgCarrier" stroke-width="0"/>
<g id="SVGRepo_tracerCarrier" stroke-linecap="round" stroke-linejoin="round"/>
<g id="SVGRepo_iconCarrier"> <circle style="fill: rgb(33, 208, 195); --darkreader-inline-fill: var(--darkreader-text-21d0c3, #41e1d5);" cx="256" cy="256" r="256" data-darkreader-inline-fill=""/> <path style="fill: rgb(255, 255, 255); --darkreader-inline-fill: var(--darkreader-text-ffffff, #e8e6e3);" d="M252.442,305.805H185.31h-3.062v3.064v47.326h6.126v-44.263h64.068v61.81v81.495h6.126v-81.495 v-23.523h64.067v44.263h6.126v-47.326v-3.064h-3.064h-67.129V225.146h-6.126V305.805z" data-darkreader-inline-fill=""/> <path style="fill: rgb(15, 121, 134); --darkreader-inline-fill: var(--darkreader-text-0f7986, #73e2ef);" d="M255.503,475.702c6.353,0,11.5-5.149,11.5-11.5c0-6.351-5.148-11.502-11.5-11.502 s-11.5,5.15-11.5,11.502C244.003,470.554,249.151,475.702,255.503,475.702z" data-darkreader-inline-fill=""/> <path style="fill: rgb(255, 255, 255); --darkreader-inline-fill: var(--darkreader-text-ffffff, #e8e6e3);" d="M143.05,284.901H83.365v6.126h59.684v50.645h6.127V192.388h-6.127L143.05,284.901L143.05,284.901z" data-darkreader-inline-fill=""/> <path style="fill: rgb(250, 210, 77); --darkreader-inline-fill: var(--darkreader-text-fad24d, #fad351);" d="M146.114,353.171c6.352,0,11.5-5.149,11.5-11.5c0-6.353-5.149-11.502-11.5-11.502 c-6.353,0-11.503,5.149-11.503,11.502C134.611,348.023,139.761,353.171,146.114,353.171z" data-darkreader-inline-fill=""/> <path style="fill: rgb(15, 121, 134); --darkreader-inline-fill: var(--darkreader-text-0f7986, #73e2ef);" d="M83.498,299.991c6.353,0,11.502-5.149,11.502-11.502c0-6.352-5.149-11.5-11.502-11.5 c-6.352,0-11.5,5.149-11.5,11.5C71.997,294.842,77.146,299.991,83.498,299.991z" data-darkreader-inline-fill=""/> <path style="fill: rgb(255, 255, 255); --darkreader-inline-fill: var(--darkreader-text-ffffff, #e8e6e3);" d="M367.493,284.901h59.684v6.126h-59.684v50.645h-6.127V192.388h6.127V284.901z" data-darkreader-inline-fill=""/> <path style="fill: rgb(15, 121, 134); --darkreader-inline-fill: var(--darkreader-text-0f7986, #73e2ef);" d="M364.429,352.985c-6.248,0-11.311-5.065-11.311-11.313c0-6.249,5.064-11.314,11.311-11.314 c6.249,0,11.314,5.065,11.314,11.314C375.743,347.919,370.678,352.985,364.429,352.985z" data-darkreader-inline-fill=""/> <path style="fill: rgb(255, 91, 98); --darkreader-inline-fill: var(--darkreader-text-ff5b62, #ff5960);" d="M427.045,300.052c-6.387,0-11.562-5.176-11.562-11.562c0-6.386,5.176-11.561,11.562-11.561 c6.386,0,11.561,5.176,11.561,11.561C438.606,294.876,433.43,300.052,427.045,300.052z" data-darkreader-inline-fill=""/> <path style="fill: rgb(236, 240, 241); --darkreader-inline-fill: var(--darkreader-text-ecf0f1, #dedbd6);" d="M109.433,177.179c0.559,0,1.112,0.013,1.665,0.038c8.189-22.901,30.066-39.285,55.78-39.285 c6.851,0,13.432,1.168,19.551,3.309c6.895-49.05,49.024-86.798,99.978-86.798c53.738,0,97.67,41.985,100.788,94.942 c28.657,1.028,51.568,24.576,51.568,53.483c0,29.559-23.96,53.52-53.52,53.52c-94.808,0-181.539,0-275.809,0 c-21.873,0-39.603-17.731-39.603-39.604S87.561,177.178,109.433,177.179L109.433,177.179z" data-darkreader-inline-fill=""/> <path style="fill: rgb(255, 255, 255); --darkreader-inline-fill: var(--darkreader-text-ffffff, #e8e6e3);" d="M107.229,171.885c0.558,0,1.111,0.014,1.663,0.038c8.189-22.899,30.066-39.284,55.781-39.284 c6.85,0,13.431,1.167,19.551,3.309c6.894-49.051,49.024-86.798,99.977-86.798c53.739,0,97.672,41.985,100.789,94.942 c28.655,1.027,51.567,24.575,51.567,53.483c0,29.559-23.96,53.52-53.52,53.52c-94.806,0-181.537,0-275.807,0 c-21.873,0-39.604-17.731-39.604-39.604S85.355,171.884,107.229,171.885L107.229,171.885z" data-darkreader-inline-fill=""/> <path style="fill: rgb(250, 210, 77); --darkreader-inline-fill: var(--darkreader-text-fad24d, #fad351);" d="M326.03,406.084c-6.387,0-11.562-5.176-11.562-11.562c0-6.386,5.176-11.561,11.562-11.561 c6.386,0,11.561,5.176,11.561,11.561C337.592,400.908,332.416,406.084,326.03,406.084z" data-darkreader-inline-fill=""/> <path style="fill: rgb(255, 91, 98); --darkreader-inline-fill: var(--darkreader-text-ff5b62, #ff5960);" d="M185.492,368.186c-6.387,0-11.562-5.176-11.562-11.562c0-6.386,5.176-11.561,11.562-11.561 c6.386,0,11.561,5.176,11.561,11.561C197.053,363.01,191.877,368.186,185.492,368.186z" data-darkreader-inline-fill=""/> </g>
</svg>