<svg xmlns="http://www.w3.org/2000/svg" fill="none" viewBox="0 0 96 96" id="Aws-Cloudformation--Streamline-Svg-Logos" height="200" width="200">
  <desc>
    Aws Cloudformation Streamline Icon: https://streamlinehq.com
  </desc>
  <path fill="url(#a)" d="M95 1H1v94h94V1Z"></path>
  <path fill="#ffffff" d="M63.2751 47.9566h5.875V45.603h-5.875v2.3536Zm-29.375 14.1216h5.875v-2.3536h-5.875v2.3536Zm-11.75 0h8.225v-2.3536h-8.225v2.3536Zm0-7.0608h14.1v-2.3536h-14.1v2.3536Zm0-14.1216h10.575v-2.3536h-10.575v2.3536Zm0 7.0608h38.775V45.603h-38.775v2.3536Zm22.325 25.8896h-27.025V33.835h27.025v9.4144h2.35V32.6582c0-.6496-.5264-1.1769-1.175-1.1769h-29.375c-.6498 0-1.175.5273-1.175 1.1769V75.023c0 .6496.5252 1.1768 1.175 1.1768h29.375c.6486 0 1.175-.5272 1.175-1.1768V51.487h-2.35v22.3592Zm36.425-29.42c0 7.6045-6.8467 10.2499-10.4669 10.5865l-18.9081.0047v-2.3536h18.8c.2291-.0271 8.225-.8897 8.225-8.2376 0-6.6913-6.036-8.0494-7.2451-8.2541-.6027-.1024-1.0269-.6484-.9752-1.258.0012-.0224.0035-.0436.0059-.0647-.0646-3.7811-2.3829-4.9626-3.3876-5.2968-1.8753-.6237-3.9656-.0271-5.0712 1.4557-.2574.3483-.6827.526-1.1151.4601-.4277-.0647-.7861-.3589-.9318-.7684-.7297-2.0453-1.7883-3.3704-3.2606-4.8449-3.6825-3.6599-8.6809-4.6708-13.3574-2.7032-2.4534 1.0345-4.5978 3.3786-5.8786 6.4324l-2.1667-.9132c1.5181-3.6139 4.1196-6.4171 7.1347-7.688 5.5871-2.3524 11.5396-1.1533 15.9259 3.2044 1.2573 1.2604 2.2983 2.4878 3.1091 4.0765 1.7542-1.2992 4.1207-1.6876 6.3532-.945 2.8576.9509 4.6647 3.4327 4.9561 6.7325 4.0021 1.0097 8.2544 4.2094 8.2544 10.3747Z"></path>
  <defs>
    <linearGradient id="a" x1="1" x2="9401" y1="9401" y2="1" gradientUnits="userSpaceOnUse">
      <stop stop-color="#b0084d"></stop>
      <stop offset="1" stop-color="#ff4f8b"></stop>
    </linearGradient>
  </defs>
</svg>