<svg xmlns="http://www.w3.org/2000/svg" fill="none" viewBox="-2 -2 204 204" id="Docker-Icon--Streamline-Svg-Logos" height="204" width="204">
  <desc>
    Docker Icon Streamline Icon: https://streamlinehq.com
  </desc>
  <path fill="#2396ed" d="M193.87437500000001 83.26708333333335c-4.409791666666667 -3.0597916666666665 -14.515625000000002 -4.207291666666666 -22.416458333333335 -2.6772916666666666 -0.9187500000000001 -7.649375 -5.144791666666667 -14.342708333333334 -12.494583333333335 -20.27104166666667l-4.226041666666667 -3.0597916666666665 -2.939791666666667 4.398541666666667c-3.674791666666667 5.7370833333333335 -5.512291666666667 13.768958333333334 -4.961041666666667 21.418333333333333 0.18375000000000002 2.6772916666666666 1.1025 7.458125 3.858541666666667 11.665416666666667 -2.5722916666666666 1.5297916666666667 -7.900833333333335 3.442291666666667 -14.883125000000001 3.442291666666667H2.9667083333333335l-0.3674791666666667 1.5297916666666667c-1.2862020833333334 7.649375 -1.2862020833333334 31.553958333333334 13.780625 49.9125C27.771875000000005 163.58604166666666 44.67604166666667 170.661875 66.90875 170.661875c48.14041666666667 0 83.78625 -23.139583333333334 100.50687500000001 -65.02020833333334 6.614583333333333 0.19125000000000003 20.762708333333336 0 27.92875 -14.342708333333334 0.18375000000000002 -0.38250000000000006 0.5510416666666668 -1.1472916666666666 1.8372916666666668 -4.015833333333333L197.91666666666669 85.753125l-4.042291666666666 -2.486041666666667ZM109.169375 29.338541666666668h-20.211458333333333v19.123541666666668h20.211458333333333v-19.123541666666668Zm0 22.948333333333334h-20.211458333333333v19.123541666666668h20.211458333333333v-19.123541666666668Zm-23.886458333333337 0h-20.211458333333333v19.123541666666668h20.211458333333333v-19.123541666666668Zm-23.886250000000004 0h-20.211666666666666v19.123541666666668h20.211666666666666v-19.123541666666668ZM37.51020833333333 75.23520833333335H17.2985625v19.123541666666668h20.211645833333332v-19.123541666666668Zm23.886458333333337 0h-20.211666666666666v19.123541666666668h20.211666666666666v-19.123541666666668Zm23.886250000000004 0h-20.211458333333333v19.123541666666668h20.211458333333333v-19.123541666666668Zm23.886458333333337 0h-20.211458333333333v19.123541666666668h20.211458333333333v-19.123541666666668Zm23.886458333333337 0h-20.211666666666666v19.123541666666668h20.211666666666666v-19.123541666666668Z" stroke-width="2.0833"></path>
</svg>