<?xml version="1.0" encoding="UTF-8" standalone="no"?>
<!-- Created with Inkscape (http://www.inkscape.org/) -->

<svg
   width="200mm"
   height="200.00002mm"
   viewBox="0 0 200 200.00002"
   version="1.1"
   id="svg1"
   xmlns="http://www.w3.org/2000/svg"
   xmlns:svg="http://www.w3.org/2000/svg">
  <defs
     id="defs1" />
  <g
     id="layer1">
    <g
       id="g1">
      <rect
         style="fill:#fafafa;fill-opacity:0;stroke-width:0"
         id="rect1"
         width="200"
         height="200"
         x="0"
         y="0" />
      <g
         id="g7"
         transform="matrix(0.83663041,0,0,1.0644503,-98.240831,41.34435)">
        <path
           d="M 127.385,70 V 23.7891 h 28.132 v 6.9189 h -19.769 v 12.5049 h 16.854 v 6.3476 h -16.854 v 13.6793 h 20.149 V 70 Z"
           fill="#c570be"
           id="path1" />
        <path
           d="M 160.142,70 V 39.9756 h 8.079 l 0.031,4.2212 h 0.095 c 1.035,-1.5446 2.355,-2.7507 3.96,-3.6182 1.606,-0.8887 3.443,-1.333 5.513,-1.333 2.154,0 3.992,0.4549 5.512,1.3648 1.521,0.8886 2.587,2.2216 3.2,3.999 h 0.095 c 1.098,-1.735 2.545,-3.0681 4.34,-3.999 1.817,-0.931 3.844,-1.3965 6.083,-1.3965 2.914,0 5.259,0.8569 7.033,2.5708 1.774,1.7138 2.661,4.5703 2.661,8.5693 V 70 h -8.395 V 51.2427 c 0,-2.0736 -0.412,-3.523 -1.236,-4.3482 -0.824,-0.8252 -2.006,-1.2378 -3.548,-1.2378 -1.352,0 -2.524,0.4126 -3.517,1.2378 -0.992,0.8041 -1.805,1.862 -2.439,3.1739 V 70 h -8.364 V 51.2427 c 0,-2.0524 -0.422,-3.4912 -1.267,-4.3164 -0.845,-0.8464 -2.038,-1.2696 -3.58,-1.2696 -1.351,0 -2.524,0.4126 -3.516,1.2378 -0.972,0.8252 -1.774,1.8832 -2.408,3.1739 V 70 Z"
           fill="#c570be"
           id="path2" />
        <path
           d="m 211.401,55.4321 v -1.0156 c 0,-4.5915 1.426,-8.2943 4.277,-11.1084 2.872,-2.8141 6.674,-4.2212 11.405,-4.2212 4.752,0 8.553,1.4071 11.405,4.2212 2.872,2.8141 4.308,6.5169 4.308,11.1084 v 1.0156 c 0,4.6127 -1.436,8.326 -4.308,11.1402 -2.852,2.7929 -6.653,4.1894 -11.405,4.1894 -4.752,0 -8.554,-1.3965 -11.405,-4.1894 -2.851,-2.8142 -4.277,-6.5275 -4.277,-11.1402 z m 8.459,-1.2695 v 1.4917 c 0,2.6872 0.612,4.856 1.837,6.5063 1.225,1.6504 3.02,2.4756 5.386,2.4756 2.365,0 4.16,-0.8252 5.385,-2.4756 1.225,-1.6503 1.838,-3.8191 1.838,-6.5063 v -1.4917 c 0,-2.666 -0.623,-4.8031 -1.869,-6.4111 -1.225,-1.6293 -3.01,-2.4439 -5.354,-2.4439 -2.345,0 -4.14,0.8146 -5.386,2.4439 -1.225,1.608 -1.837,3.7451 -1.837,6.4111 z"
           fill="#c570be"
           id="path3" />
        <path
           d="m 244.634,46.1646 v -6.2208 h 19.705 v 6.2208 z m 4.878,14.9169 V 41.7529 l 0.159,-0.5078 V 30.2002 h 8.078 v 29.4214 c 0,2.0312 0.285,3.3537 0.856,3.9673 0.57,0.6136 1.457,0.9204 2.661,0.9204 0.549,0 1.066,-0.0423 1.552,-0.127 0.486,-0.0846 0.961,-0.2221 1.426,-0.4126 v 5.9668 c -0.528,0.1905 -1.289,0.3597 -2.281,0.5078 -0.993,0.1693 -2.186,0.2539 -3.58,0.2539 -2.809,0 -4.995,-0.7405 -6.558,-2.2216 -1.542,-1.4812 -2.313,-3.9462 -2.313,-7.3951 z"
           fill="#c570be"
           id="path4" />
        <path
           d="M 268.742,70 V 39.9438 h 8.459 V 70 Z m -0.633,-40.3711 c 0,-1.2695 0.422,-2.338 1.267,-3.2056 0.845,-0.8675 2.049,-1.3012 3.612,-1.3012 1.562,0 2.756,0.4337 3.579,1.3012 0.845,0.8464 1.268,1.9149 1.268,3.2056 0,1.2695 -0.433,2.3486 -1.299,3.2373 -0.845,0.8675 -2.049,1.3013 -3.612,1.3013 -1.542,0 -2.735,-0.4444 -3.58,-1.333 -0.823,-0.8887 -1.235,-1.9572 -1.235,-3.2056 z"
           fill="#c570be"
           id="path5" />
        <path
           d="m 282.302,55.4321 v -1.0156 c 0,-4.5915 1.425,-8.2943 4.276,-11.1084 2.873,-2.8141 6.674,-4.2212 11.405,-4.2212 4.752,0 8.554,1.4071 11.405,4.2212 2.873,2.8141 4.309,6.5169 4.309,11.1084 v 1.0156 c 0,4.6127 -1.436,8.326 -4.309,11.1402 -2.851,2.7929 -6.653,4.1894 -11.405,4.1894 -4.752,0 -8.553,-1.3965 -11.405,-4.1894 -2.851,-2.8142 -4.276,-6.5275 -4.276,-11.1402 z m 8.458,-1.2695 v 1.4917 c 0,2.6872 0.613,4.856 1.838,6.5063 1.225,1.6504 3.02,2.4756 5.385,2.4756 2.366,0 4.161,-0.8252 5.386,-2.4756 1.225,-1.6503 1.837,-3.8191 1.837,-6.5063 v -1.4917 c 0,-2.666 -0.623,-4.8031 -1.869,-6.4111 -1.225,-1.6293 -3.009,-2.4439 -5.354,-2.4439 -2.344,0 -4.139,0.8146 -5.385,2.4439 -1.225,1.608 -1.838,3.7451 -1.838,6.4111 z"
           fill="#c570be"
           id="path6" />
        <path
           d="M 318.607,70 V 39.9438 h 8.11 l 0.064,4.0626 h 0.095 c 0.845,-1.4812 2.091,-2.6449 3.738,-3.4913 1.647,-0.8463 3.59,-1.2695 5.829,-1.2695 3.02,0 5.449,0.8569 7.287,2.5708 1.858,1.6927 2.788,4.528 2.788,8.5059 V 70 h -8.332 V 51.4014 c 0,-2.0736 -0.444,-3.5441 -1.331,-4.4117 -0.887,-0.8886 -2.133,-1.333 -3.738,-1.333 -1.373,0 -2.598,0.4021 -3.675,1.2061 -1.077,0.804 -1.912,1.862 -2.503,3.1738 V 70 Z"
           fill="#c570be"
           id="path7" />
      </g>
    </g>
  </g>
</svg>
