<svg xmlns="http://www.w3.org/2000/svg" fill="none" viewBox="-2 -2 204 204" id="Git--Streamline-Svg-Logos" height="204" width="204">
  <desc>
    Git Streamline Icon: https://streamlinehq.com
  </desc>
  <path fill="#2f2707" d="M119.44791666666667 86.94291666666666c-4.29375 0 -7.491666666666667 2.1083333333333334 -7.491666666666667 7.182291666666667 0 3.823125 2.107291666666667 6.4775 7.260416666666667 6.4775 4.367291666666667 0 7.33375 -2.5737500000000004 7.33375 -6.635208333333334 0 -4.6033333333333335 -2.6543750000000004 -7.024583333333334 -7.1025 -7.024583333333334Zm-8.584791666666668 35.82833333333334c-1.01625 1.2464583333333334 -2.028541666666667 2.5720833333333335 -2.028541666666667 4.135 0 3.12 3.9781250000000004 4.058958333333334 9.443125 4.058958333333334 4.5268749999999995 0 10.693125 -0.31750000000000006 10.693125 -4.526041666666667 0 -2.5020833333333337 -2.9664583333333336 -2.65625 -6.715 -2.89125l-11.392708333333333 -0.7766666666666667Zm23.101875000000003 -35.5925c1.4027083333333334 1.7954166666666669 2.8877083333333338 4.29375 2.8877083333333338 7.88375 0 8.662916666666668 -6.790416666666667 13.735000000000001 -16.621875000000003 13.735000000000001 -2.5002083333333336 0 -4.76375 -0.31104166666666666 -6.167291666666667 -0.70125l-2.5764583333333335 4.136041666666667 7.647916666666667 0.4670833333333334c13.50375 0.8610416666666667 21.461875000000003 1.2520833333333334 21.461875000000003 11.627916666666668 0 8.977708333333334 -7.881041666666667 14.048125 -21.461875000000003 14.048125 -14.12625 0 -19.511458333333337 -3.5900000000000003 -19.511458333333337 -9.755416666666667 0 -3.5125 1.5614583333333336 -5.381458333333334 4.292916666666667 -7.961458333333334 -2.5764583333333335 -1.0887499999999999 -3.4337500000000003 -3.0393750000000006 -3.4337500000000003 -5.147708333333333 0 -1.7181250000000001 0.8572916666666667 -3.278541666666667 2.2643750000000002 -4.762708333333333 1.4043750000000002 -1.480625 2.964791666666667 -2.965625 4.838125 -4.682083333333333 -3.82375 -1.8735416666666669 -6.712291666666667 -5.932291666666667 -6.712291666666667 -11.708541666666667 0 -8.974166666666667 5.932083333333334 -15.137708333333334 17.871041666666667 -15.137708333333334 3.356666666666667 0 5.387083333333334 0.3085416666666667 7.182291666666667 0.7802083333333334h15.220208333333334v6.631666666666667l-7.1814583333333335 0.5470833333333334Z" stroke-width="2.0833"></path>
  <path fill="#2f2707" d="M154.87583333333336 72.99604166666667c-4.449791666666667 0 -7.024375000000001 -2.577291666666667 -7.024375000000001 -7.028125 0 -4.444375000000001 2.5745833333333334 -6.865833333333334 7.024375000000001 -6.865833333333334 4.527083333333334 0 7.1025 2.4214583333333337 7.1025 6.865833333333334 0 4.450833333333334 -2.575416666666667 7.028125 -7.1025 7.028125Zm-10.07 46.90270833333334v-6.162708333333334l3.9818750000000005 -0.5443749999999999c1.0931250000000001 -0.15791666666666668 1.2483333333333333 -0.39104166666666673 1.2483333333333333 -1.5639583333333336V88.68166666666667c0 -0.8564583333333334 -0.23333333333333336 -1.4052083333333334 -1.0160416666666667 -1.6375000000000002l-4.214166666666667 -1.4841666666666669 0.8583333333333334 -6.319583333333333h16.157291666666666v32.38729166666667c0 1.2510416666666668 0.07541666666666667 1.4060416666666669 1.2491666666666668 1.5639583333333336l3.980833333333334 0.5443749999999999v6.162708333333334H144.80583333333334Z" stroke-width="2.0833"></path>
  <path fill="#2f2707" d="M197.91729166666667 116.873125c-3.3577083333333335 1.6375000000000002 -8.273750000000001 3.1206250000000004 -12.724583333333335 3.1206250000000004 -9.287083333333333 0 -12.797916666666667 -3.742291666666667 -12.797916666666667 -12.565625v-20.447708333333335c0 -0.4670833333333334 0 -0.7802083333333334 -0.6268750000000001 -0.7802083333333334h-5.462291666666667v-6.946458333333333c6.870208333333333 -0.7818750000000001 9.6 -4.216666666666667 10.458125 -12.723541666666668h7.415625v11.086041666666667c0 0.5443749999999999 0 0.7802083333333334 0.625 0.7802083333333334h11.003541666666667v7.803750000000001h-11.628541666666667v18.652291666666667c0 4.605 1.0939583333333334 6.398541666666667 5.30625 6.398541666666667 2.1881250000000003 0 4.448958333333334 -0.5452083333333333 6.322291666666667 -1.2472916666666667l2.109375 6.869375000000001Z" stroke-width="2.0833"></path>
  <path fill="#de4c36" d="M82.27458333333334 96.39145833333333 46.588750000000005 60.708333333333336c-2.05375 -2.055416666666667 -5.387083333333334 -2.055416666666667 -7.443333333333334 0l-7.410208333333334 7.410208333333334 9.400208333333335 9.4c2.1845833333333333 -0.7379166666666668 4.689166666666667 -0.24291666666666667 6.430833333333334 1.4985416666666669 1.7495833333333335 1.7525 2.241041666666667 4.27875 1.485 6.470416666666667l9.059375 9.059375c2.191666666666667 -0.7552083333333334 4.720625 -0.2664583333333334 6.47125 1.4868750000000002 2.446458333333333 2.4454166666666666 2.446458333333333 6.409166666666668 0 8.856458333333334 -2.447291666666667 2.4475000000000002 -6.41125 2.4475000000000002 -8.859375000000002 0 -1.8402083333333334 -1.8418750000000002 -2.294791666666667 -4.544791666666668 -1.3631250000000001 -6.811875000000001l-8.448541666666667 -8.448541666666667 -0.0010416666666666669 22.232916666666668c0.5964583333333334 0.2960416666666667 1.1595833333333334 0.6897916666666667 1.6564583333333336 1.1847916666666667 2.446458333333333 2.4454166666666666 2.446458333333333 6.409375 0 8.858333333333334 -2.447291666666667 2.446458333333333 -6.412916666666667 2.446458333333333 -8.856666666666667 0 -2.446458333333333 -2.4489583333333336 -2.446458333333333 -6.412916666666667 0 -8.858333333333334 0.6043750000000001 -0.6035416666666668 1.3039583333333336 -1.06 2.0500000000000003 -1.366666666666667V89.24041666666668c-0.7460416666666667 -0.30479166666666674 -1.4445833333333336 -0.7585416666666667 -2.0500000000000003 -1.366666666666667 -1.8537500000000002 -1.8508333333333333 -2.299375 -4.570833333333334 -1.3495833333333336 -6.846875000000001l-9.265625 -9.267291666666667L3.6255833333333336 96.22645833333334c-2.05633125 2.057291666666667 -2.05633125 5.390625 0 7.446041666666667L39.31125 139.35645833333334c2.0545833333333334 2.055416666666667 5.387083333333334 2.055416666666667 7.444375000000001 0l35.51895833333334 -35.518125000000005c2.055416666666667 -2.05625 2.055416666666667 -5.3914583333333335 0 -7.446875Z" stroke-width="2.0833"></path>
</svg>