<svg xmlns="http://www.w3.org/2000/svg" fill="none" viewBox="-6 -6 212 212" id="Jwt-Icon--Streamline-Svg-Logos" height="212" width="212">
  <desc>
    Jwt Icon Streamline Icon: https://streamlinehq.com
  </desc>
  <path fill="#ffffff" d="M114.78604166666666 54.76250000000001 114.59020833333335 2.0833333333333335h-29.375l0.19583333333333336 52.679166666666674 14.6875 20.170833333333334 14.6875 -20.170833333333334Z" stroke-width="2.0833"></path>
  <path fill="#ffffff" d="M85.41166666666668 145.041875v52.875h29.375v-52.875l-14.6875 -20.170833333333334 -14.6875 20.170833333333334Z" stroke-width="2.0833"></path>
  <path fill="#00f2e6" d="m114.78479166666668 145.04166666666669 30.94166666666667 42.69166666666667 23.695833333333336 -17.233333333333334 -30.94166666666667 -42.69166666666667 -23.695833333333336 -7.6375V145.04166666666669Z" stroke-width="2.0833"></path>
  <path fill="#00f2e6" d="M85.41083333333334 54.76229166666668 54.27333333333334 12.070729166666666l-23.695833333333336 17.233229166666668 30.94166666666667 42.69166666666667 23.89166666666667 7.6375v-24.870833333333337Z" stroke-width="2.0833"></path>
  <path fill="#00b9f1" d="m61.51895833333334 71.995625 -50.1333125 -16.254166666666666 -9.008333333333333 27.808333333333337 50.1333125 16.45 23.695833333333336 -7.833333333333333 -14.6875 -20.170833333333334Z" stroke-width="2.0833"></path>
  <path fill="#00b9f1" d="m123.79354166666668 107.6375 14.6875 20.170833333333334 50.13333333333334 16.254166666666666 9.008333333333333 -27.808333333333337L147.489375 100l-23.695833333333336 7.6375Z" stroke-width="2.0833"></path>
  <path fill="#d63aff" d="m147.489375 99.99979166666667 50.13333333333334 -16.45 -9.008333333333333 -27.808333333333337 -50.13333333333334 16.254166666666666 -14.6875 20.170833333333334 23.695833333333336 7.833333333333333Z" stroke-width="2.0833"></path>
  <path fill="#d63aff" d="M52.510625000000005 100 2.3773125000000004 116.25416666666668l9.008333333333333 27.808333333333337 50.1333125 -16.254166666666666 14.6875 -20.170833333333334L52.510625000000005 100Z" stroke-width="2.0833"></path>
  <path fill="#fb015b" d="M61.51916666666667 127.80833333333334 30.5775 170.50000000000003l23.695833333333336 17.233333333333334 31.137500000000003 -42.69166666666667V120.17083333333335l-23.89166666666667 7.6375Z" stroke-width="2.0833"></path>
  <path fill="#fb015b" d="m138.480625 71.995625 30.94166666666667 -42.69166666666667 -23.695833333333336 -17.233229166666668 -30.94166666666667 42.6915625v24.870833333333337l23.695833333333336 -7.6375Z" stroke-width="2.0833"></path>
</svg>