<!DOCTYPE svg PUBLIC "-//W3C//DTD SVG 1.1//EN" "http://www.w3.org/Graphics/SVG/1.1/DTD/svg11.dtd">
<!-- Uploaded to: SVG Repo, www.svgrepo.com, Transformed by: SVG Repo Mixer Tools -->
<svg height="800px" width="800px" version="1.1" id="Layer_1" xmlns="http://www.w3.org/2000/svg" xmlns:xlink="http://www.w3.org/1999/xlink" viewBox="0 0 511.883 511.883" xml:space="preserve" fill="#000000" style="--darkreader-inline-fill: var(--darkreader-background-000000, #000000);" data-darkreader-inline-fill="">
<g id="SVGRepo_bgCarrier" stroke-width="0"/>
<g id="SVGRepo_tracerCarrier" stroke-linecap="round" stroke-linejoin="round"/>
<g id="SVGRepo_iconCarrier"> <polygon style="fill: rgb(204, 209, 217); --darkreader-inline-fill: var(--darkreader-text-ccd1d9, #ccc7c1);" points="341.251,479.885 170.618,479.885 191.894,373.316 319.942,373.285 " data-darkreader-inline-fill=""/> <g> <path style="fill: rgb(230, 233, 237); --darkreader-inline-fill: var(--darkreader-text-e6e9ed, #dad7d2);" d="M511.883,383.909c0,5.905-4.781,10.653-10.67,10.653H10.654C4.78,394.561,0,389.814,0,383.908 V42.651c0-5.889,4.78-10.653,10.654-10.653h490.559c5.889,0,10.67,4.764,10.67,10.653V383.909z" data-darkreader-inline-fill=""/> <path style="fill: rgb(230, 233, 237); --darkreader-inline-fill: var(--darkreader-text-e6e9ed, #dad7d2);" d="M341.251,479.885H170.618c-5.874,0-10.654-4.779-10.654-10.653c0-5.905,4.78-10.686,10.654-10.686 h170.633c5.889,0,10.669,4.78,10.669,10.686C351.92,475.107,347.139,479.885,341.251,479.885z" data-darkreader-inline-fill=""/> </g> <path style="fill: rgb(101, 109, 120); --darkreader-inline-fill: var(--darkreader-text-656d78, #a29a8e);" d="M501.213,31.998H10.654C4.78,31.998,0,36.762,0,42.651v287.926h511.883V42.651 C511.883,36.762,507.102,31.998,501.213,31.998z" data-darkreader-inline-fill=""/> <path style="fill: rgb(67, 74, 84); --darkreader-inline-fill: var(--darkreader-text-434a54, #b8b2a9);" d="M266.595,362.569c0,5.905-4.765,10.685-10.654,10.685c-5.889,0-10.669-4.779-10.669-10.685 c0-5.874,4.78-10.653,10.669-10.653C261.83,351.916,266.595,356.695,266.595,362.569z" data-darkreader-inline-fill=""/> <path style="fill: rgb(252, 110, 81); --darkreader-inline-fill: var(--darkreader-text-fc6e51, #fc7053);" d="M373.243,74.644H53.317c-5.89,0-10.669,4.78-10.669,10.669c0,5.89,4.78,10.67,10.669,10.67h319.926 c5.889,0,10.67-4.78,10.67-10.67C383.913,79.424,379.131,74.644,373.243,74.644z" data-darkreader-inline-fill=""/> <path style="fill: rgb(172, 146, 235); --darkreader-inline-fill: var(--darkreader-text-ac92eb, #a488e9);" d="M53.317,138.63h170.632c5.89,0,10.654-4.765,10.654-10.654c0-5.905-4.764-10.669-10.654-10.669 H53.317c-5.89,0-10.669,4.764-10.669,10.669C42.647,133.865,47.427,138.63,53.317,138.63z" data-darkreader-inline-fill=""/> <path style="fill: rgb(72, 207, 173); --darkreader-inline-fill: var(--darkreader-text-48cfad, #56d3b3);" d="M53.317,181.29h234.618c5.89,0,10.654-4.78,10.654-10.669s-4.765-10.653-10.654-10.653H53.317 c-5.89,0-10.669,4.764-10.669,10.653C42.647,176.51,47.427,181.29,53.317,181.29z" data-darkreader-inline-fill=""/> <path style="fill: rgb(93, 156, 236); --darkreader-inline-fill: var(--darkreader-text-5d9cec, #60aaec);" d="M53.317,223.938l149.293,0.016c5.905,0,10.669-4.78,10.669-10.669 c0-5.889-4.764-10.669-10.669-10.669H53.317c-5.89,0-10.669,4.78-10.669,10.669C42.647,219.173,47.427,223.938,53.317,223.938z" data-darkreader-inline-fill=""/> <path style="fill: rgb(255, 206, 84); --darkreader-inline-fill: var(--darkreader-text-ffce54, #ffce54);" d="M330.581,245.275H53.317c-5.89,0-10.669,4.78-10.669,10.654c0,5.905,4.78,10.67,10.669,10.67h277.264 c5.905,0,10.67-4.765,10.67-10.654C341.251,250.057,336.486,245.275,330.581,245.275z" data-darkreader-inline-fill=""/> <path style="fill: rgb(237, 85, 100); --darkreader-inline-fill: var(--darkreader-text-ed5564, #ee5a68);" d="M138.625,287.93H53.317c-5.89,0-10.669,4.781-10.669,10.654c0,5.905,4.78,10.686,10.669,10.686 h85.309c5.905,0,10.669-4.78,10.669-10.686C149.295,292.711,144.53,287.93,138.625,287.93z" data-darkreader-inline-fill=""/> </g>
</svg>