<svg xmlns="http://www.w3.org/2000/svg" fill="none" viewBox="-2 -2 204 204" id="Mongodb-Icon--Streamline-Svg-Logos" height="204" width="204">
  <desc>
    Mongodb Icon Streamline Icon: https://streamlinehq.com
  </desc>
  <path fill="#01ec64" d="M117.01041666666667 23.910208333333337c-8.218958333333333 -9.751583333333334 -15.296666666666667 -19.655604166666667 -16.742500000000003 -21.71260416666667 -0.1522916666666667 -0.1523625 -0.38062500000000005 -0.1523625 -0.5327083333333333 0 -1.446041666666667 2.0570000000000004 -8.523541666666668 11.961020833333334 -16.742708333333336 21.71260416666667C12.445500000000001 113.884375 94.10354166666667 174.60416666666669 94.10354166666667 174.60416666666669l0.685 0.4570833333333334C95.39729166666667 184.43166666666667 96.919375 197.91666666666669 96.919375 197.91666666666669h6.088125s1.5220833333333335 -13.408958333333334 2.1310416666666665 -22.855416666666667l0.6847916666666667 -0.5333333333333334c0.07604166666666667 0.07625000000000001 81.73437500000001 -60.64354166666667 11.187083333333334 -150.61770833333333Zm-17.047083333333337 149.32229166666667s-3.652708333333334 -3.1233333333333335 -4.642083333333334 -4.722916666666666v-0.153125l4.413958333333333 -97.97333333333334c0 -0.30479166666666674 0.4566666666666667 -0.30479166666666674 0.4566666666666667 0l4.41375 97.97333333333334v0.153125c-0.9891666666666667 1.5995833333333336 -4.642291666666667 4.722916666666666 -4.642291666666667 4.722916666666666Z" stroke-width="2.0833"></path>
</svg>