<svg xmlns="http://www.w3.org/2000/svg" fill="none" viewBox="-2 -2 204 204" id="Mysql--Streamline-Svg-Logos" height="204" width="204">
  <desc>
    Mysql Streamline Icon: https://streamlinehq.com
  </desc>
  <path fill="#00758f" d="m60.33979166666667 121.41041666666668 5.951666666666666 19.310833333333335c1.3368750000000003 4.384375 1.8945833333333335 7.445 1.6716666666666669 9.189583333333333 3.2550000000000003 -8.717708333333334 5.529166666666667 -18.218125 6.822916666666667 -28.500416666666666h7.156250000000001c-3.0768750000000002 16.740000000000002 -7.135625000000001 28.904791666666668 -12.173333333333336 36.493541666666665 -3.9250000000000003 5.847291666666668 -8.225 8.771041666666667 -12.9075 8.771041666666667 -1.248125 0 -2.787291666666667 -0.3770833333333333 -4.613958333333334 -1.1260416666666666v-4.035416666666667c0.8922916666666667 0.13104166666666667 1.939375 0.20083333333333334 3.1435416666666667 0.20083333333333334 2.184375 0 3.9447916666666667 -0.6052083333333333 5.284166666666667 -1.8133333333333335 1.6039583333333336 -1.4722916666666668 2.4066666666666667 -3.126875 2.4066666666666667 -4.960625 0 -1.2525 -0.6260416666666667 -3.8225000000000002 -1.8725000000000003 -7.710208333333334L52.916666666666664 121.41041666666668h7.423125000000001ZM14.791104166666669 109.54125l10.9011875 33.260000000000005h0.066875l10.968125000000002 -33.260000000000005h8.960833333333333c1.9622916666666668 16.494375 3.1208333333333336 31.58666666666667 3.476875 45.26583333333333h-7.555000000000001c-0.2658333333333333 -12.787708333333333 -1.0022916666666668 -24.81229166666667 -2.20625 -36.07604166666667h-0.06645833333333333l-11.504583333333334 36.07604166666667h-5.752916666666668L10.644958333333335 118.73104166666668h-0.06735416666666667c-0.8484583333333334 10.8175 -1.38225 22.842083333333335 -1.6048541666666667 36.07604166666667H2.0833333333333335c0.4452083333333334 -16.094583333333333 1.5593958333333335 -31.182083333333335 3.3425625 -45.26583333333333h9.365208333333335Z" stroke-width="2.0833"></path>
  <path fill="#f29111" d="M136.91000000000003 108.869375c11.725625 0 17.589166666666667 7.491666666666667 17.589166666666667 22.467083333333335 0 8.137916666666667 -1.7633333333333336 14.284791666666667 -5.286666666666667 18.437708333333333 -0.6352083333333334 0.7587500000000001 -1.3366666666666667 1.4141666666666666 -2.075625 2.021666666666667l8.298125 4.102916666666667 -0.008125 -0.0004166666666666667 -2.94625 5.0877083333333335 -10.806250000000002 -6.305208333333334c-1.7914583333333334 0.5304166666666666 -3.762083333333334 0.7956250000000001 -5.910208333333333 0.7956250000000001 -5.757291666666667 0 -10.057916666666667 -1.678125 -12.901666666666667 -5.029583333333334 -3.1210416666666667 -3.707916666666667 -4.680416666666667 -9.545 -4.680416666666667 -17.50166666666667 0 -8.091875 1.7597916666666669 -14.215416666666668 5.284166666666667 -18.373541666666668 3.2095833333333337 -3.8033333333333332 7.6920833333333345 -5.7022916666666665 13.443750000000001 -5.7022916666666665Zm-35.908125000000005 0.06625c4.191041666666667 0 8.002083333333335 1.1214583333333334 11.434375000000001 3.35625l-1.7435416666666668 3.884791666666667c-2.936875 -1.2485416666666669 -5.833125000000001 -1.8752083333333336 -8.688541666666666 -1.8752083333333336 -2.3168750000000005 0 -4.1025 0.5577083333333334 -5.347083333333334 1.6797916666666668 -1.2516666666666667 1.112291666666667 -2.0256250000000002 2.5439583333333338 -2.0256250000000002 4.288541666666667 0 2.6808333333333336 1.9102083333333335 5.0062500000000005 5.436875000000001 6.970833333333334 0.9487500000000001 0.5158333333333334 2.1845833333333333 1.20375 3.454375 1.916666666666667l0.263125 0.14791666666666667c0.043958333333333335 0.024583333333333336 0.08791666666666667 0.049375 0.13166666666666668 0.07395833333333333l0.26375 0.14833333333333334c0.043958333333333335 0.02479166666666667 0.08791666666666667 0.04958333333333334 0.13166666666666668 0.07416666666666667l0.263125 0.14833333333333334c2.6700000000000004 1.5052083333333335 5.182083333333334 2.941875 5.182083333333334 2.941875 3.5266666666666673 2.5033333333333334 5.284166666666667 5.172083333333334 5.284166666666667 9.568125 0 3.8389583333333337 -1.4066666666666667 6.990416666666667 -4.210833333333333 9.45625 -2.8064583333333335 2.4547916666666665 -6.576666666666667 3.685625 -11.298125 3.685625 -4.415833333333334 0 -8.695416666666667 -1.4164583333333334 -12.84104166666667 -4.226458333333334l1.939375 -3.8883333333333336c3.5675 1.7879166666666668 6.795833333333334 2.6808333333333336 9.694375 2.6808333333333336 2.7189583333333336 0 4.847083333333334 -0.6066666666666667 6.386666666666667 -1.805416666666667 1.5360416666666667 -1.2072916666666669 2.456875 -2.89125 2.456875 -5.027083333333334 0 -2.6877083333333336 -1.869375 -4.985 -5.299375 -6.9122916666666665 -0.890625 -0.4902083333333334 -2.0314583333333336 -1.1300000000000001 -3.2110416666666666 -1.7968750000000002l-0.2627083333333333 -0.14854166666666668c-0.48250000000000004 -0.2729166666666667 -0.9689583333333335 -0.5489583333333334 -1.4447916666666667 -0.8195833333333334l-0.25854166666666667 -0.146875c-2.315625 -1.3172916666666667 -4.317916666666667 -2.4681250000000006 -4.317916666666667 -2.4681250000000006 -3.4289583333333336 -2.507916666666667 -5.147916666666667 -5.19875 -5.147916666666667 -9.6325 0 -3.666875 1.281875 -6.630833333333333 3.8425000000000002 -8.885833333333334 2.5664583333333333 -2.2593750000000004 5.8775 -3.389166666666667 9.932083333333335 -3.389166666666667Zm67.27770833333334 0.6054166666666667v39.69770833333334h14.243125000000003v5.568125h-21.46666666666667V109.54104166666669h7.223541666666667ZM190.4375 149.25604166666668v0.9408333333333334h-1.5664583333333335v4.605416666666667h-1.1968750000000001v-4.605416666666667h-1.6270833333333334v-0.9408333333333334H190.4375Zm2.8914583333333335 0 1.5033333333333334 3.780416666666667 1.38125 -3.780416666666667h1.6968750000000001v5.546250000000001h-1.128125V150.58125l-1.5722916666666669 4.221041666666667h-0.8135416666666667l-1.5745833333333334 -4.221041666666667h-0.060625000000000005v4.221041666666667h-1.0675000000000001v-5.546250000000001h1.6352083333333336ZM136.17208333333335 114.43625000000002c-6.910000000000001 0 -10.366666666666667 5.702708333333334 -10.366666666666667 17.100833333333334 0 6.528958333333334 0.9160416666666666 11.263958333333333 2.7445833333333334 14.214583333333335 1.6933333333333334 2.73125 4.346041666666667 4.093750000000001 7.957916666666667 4.093750000000001 6.910000000000001 0 10.366666666666667 -5.747083333333333 10.366666666666667 -17.236458333333335 0 -6.437708333333334 -0.9160416666666666 -11.131666666666668 -2.742291666666667 -14.083541666666669 -1.6958333333333333 -2.7252083333333337 -4.347291666666667 -4.089166666666667 -7.960208333333334 -4.089166666666667Z" stroke-width="2.0833"></path>
  <path fill="#00758f" d="M118.05875 36.12958333333333c2.292291666666667 -5.6325 10.307291666666666 -1.3672916666666668 13.417916666666667 0.6006250000000001 0.7622916666666667 0.49187500000000006 1.63625 1.5320833333333335 2.510416666666667 1.9164583333333336 1.3635416666666667 0.053750000000000006 2.7260416666666667 0.16 4.091875 0.2172916666666667 2.561875 0.601875 4.961458333333334 1.0937500000000002 6.98 2.24375 9.382083333333334 5.525 15.489166666666668 11.155208333333334 21.110208333333333 20.454583333333332 1.200416666666667 1.9702083333333333 1.8006250000000001 4.1016666666666675 2.781875 6.233333333333333 1.36125 3.1772916666666666 2.8914583333333335 6.512291666666667 4.471875000000001 9.517083333333334 0.7075000000000001 1.424375 1.2552083333333335 3.0083333333333333 2.2377083333333334 4.2110416666666675 0.3835416666666667 0.55 1.473125 0.7120833333333334 2.1245833333333337 1.0408333333333333 1.8008333333333333 0.9320833333333335 3.9825000000000004 1.6395833333333336 5.675833333333334 2.73375 3.1631250000000004 1.9718750000000003 6.22125 4.321875 9.001041666666667 6.727500000000001 1.0360416666666667 0.9289583333333334 1.7422916666666668 2.2435416666666668 2.729375 3.2258333333333336v0.49583333333333335c-0.87625 0.26875000000000004 -1.7493750000000001 0.5441666666666667 -2.6233333333333335 0.7645833333333334 -1.9091666666666667 0.4908333333333334 -3.6002083333333337 0.3797916666666667 -5.452083333333333 0.8706250000000001 -1.1445833333333335 0.3316666666666667 -2.5652083333333335 0.7697916666666668 -3.7656250000000004 0.8808333333333335 0.053541666666666675 0.05395833333333334 0.11062500000000001 0.111875 0.11062500000000001 0.111875 0.70625 2.0175 4.526666666666667 3.658541666666667 6.273750000000001 4.865 2.122291666666667 1.5314583333333334 4.088541666666667 3.3893750000000002 5.671250000000001 5.522083333333334 0.5464583333333334 0.5443749999999999 1.0931250000000001 1.0397916666666667 1.6375000000000002 1.5825000000000002 0.3797916666666667 0.55 0.48708333333333337 1.2612500000000002 0.8716666666666667 1.7520833333333334v0.16562500000000002c-0.42604166666666665 -0.15041666666666667 -0.7322916666666667 -0.4370833333333333 -1.0229166666666667 -0.7370833333333334l-0.17333333333333334 -0.180625c-0.1729166666666667 -0.18041666666666667 -0.3479166666666667 -0.3566666666666667 -0.5472916666666667 -0.5025000000000001 -1.2039583333333335 -0.8225 -2.399583333333333 -1.8062500000000001 -3.603541666666667 -2.5708333333333333 -2.0700000000000003 -1.313125 -4.470833333333333 -2.075625 -6.596666666666667 -3.3937500000000003 -1.2014583333333333 -0.765625 -2.347291666666667 -1.6375000000000002 -3.492916666666667 -2.512916666666667 -1.0383333333333333 -0.7677083333333333 -2.1816666666666666 -2.242291666666667 -2.834375 -3.3360416666666666 -0.38458333333333333 -0.6041666666666666 -0.4370833333333333 -1.3145833333333334 -0.8764583333333335 -1.7514583333333336 0.07875 -0.7302083333333333 0.7477083333333334 -0.9475 1.4225 -1.125625l0.155625 -0.04083333333333333c0.23270833333333335 -0.060625000000000005 0.460625 -0.12083333333333335 0.6595833333333334 -0.200625 2.8356250000000003 -1.2041666666666666 6.216666666666667 -1.6410416666666667 10.582500000000001 -1.5314583333333334 -0.16437500000000002 -1.0964583333333333 -2.8927083333333337 -2.4620833333333336 -3.7633333333333336 -3.1185416666666668 -1.748125 -1.26 -3.5989583333333335 -2.5745833333333334 -5.453125000000001 -3.7212500000000004 -0.9825000000000002 -0.6006250000000001 -2.676041666666667 -1.0389583333333334 -3.7645833333333334 -1.5295833333333333 -1.473125 -0.6020833333333333 -4.746875000000001 -1.20375 -5.562708333333334 -2.350416666666667 -1.3864583333333333 -1.8075 -2.3825000000000003 -3.963541666666667 -3.3495833333333334 -6.141666666666667l-0.26333333333333336 -0.594375c-0.08770833333333333 -0.19812500000000002 -0.17541666666666667 -0.39625000000000005 -0.26333333333333336 -0.5939583333333334 -1.1433333333333333 -2.622708333333333 -2.5629166666666667 -5.357083333333334 -3.708541666666667 -8.0425 -0.5991666666666667 -1.31 -0.8741666666666666 -2.459791666666667 -1.5304166666666668 -3.716041666666667 -3.9800000000000004 -7.710208333333334 -9.871458333333333 -14.165416666666669 -17.014583333333334 -18.705416666666668 -2.347291666666667 -1.4770833333333333 -4.964791666666668 -2.8441666666666667 -7.853958333333334 -3.7733333333333334 -1.6375000000000002 -0.4941666666666667 -3.6025000000000005 -0.22083333333333335 -5.347291666666667 -0.6006250000000001h-1.147916666666667c-0.9802083333333333 -0.275625 -1.7983333333333333 -1.3145833333333334 -2.5629166666666667 -1.8627083333333334 -1.6887500000000002 -1.1462500000000002 -3.379791666666667 -1.9164583333333336 -5.399583333333334 -2.734375 -0.7075000000000001 -0.3283333333333333 -2.728333333333334 -1.0927083333333334 -3.4333333333333336 -0.4908333333333334 -0.4370833333333333 0.10979166666666666 -0.6585416666666667 0.27458333333333335 -0.7658333333333334 0.7129166666666668 -0.4345833333333334 0.654375 -0.052500000000000005 1.6393750000000002 0.21791666666666668 2.2425 0.8193750000000001 1.748125 1.9639583333333335 2.7868749999999998 3.002291666666667 4.263958333333334 0.9241666666666667 1.31 2.072291666666667 2.787083333333334 2.727291666666667 4.211666666666667 1.4135416666666667 3.061666666666667 2.0720833333333335 6.453958333333334 3.3820833333333336 9.515625 0.4860416666666667 1.1510416666666667 1.2539583333333335 2.461041666666667 1.9614583333333335 3.5 0.5991666666666667 0.82375 1.6887500000000002 1.4197916666666668 2.0185416666666667 2.4633333333333334 0.6575000000000001 1.0937500000000002 -0.9835416666666668 4.703333333333334 -1.3635416666666667 5.849791666666667 -1.420625 4.485416666666667 -1.1456250000000001 10.72 0.49062500000000003 14.608333333333334 0.02916666666666667 0.06791666666666667 0.05833333333333334 0.13625 0.08729166666666667 0.20500000000000002l0.08729166666666667 0.2075c0.5972916666666668 1.4239583333333334 1.2368750000000002 2.957291666666667 2.825416666666667 3.3556250000000003 0.10958333333333334 -0.10854166666666668 0 -0.051458333333333335 0.21666666666666667 -0.10854166666666668 0.3847916666666667 -3.009583333333334 0.49312500000000004 -5.907708333333334 1.5304166666666668 -8.262291666666668 0.5989583333333334 -1.4720833333333334 1.7958333333333334 -2.512916666666667 2.6164583333333336 -3.7147916666666667 0.5464583333333334 0.32729166666666665 0.5464583333333334 1.3147916666666668 0.8729166666666667 1.9679166666666668 0.7097916666666667 1.6943750000000002 1.471875 3.552291666666667 2.347291666666667 5.251666666666667 1.7958333333333334 3.5 3.8168750000000005 6.892916666666667 6.106875 9.954375 0.766875 1.0931250000000001 1.8554166666666667 2.2970833333333336 2.836875 3.2820833333333335 0.4370833333333333 0.38125000000000003 0.9264583333333334 0.6016666666666667 1.2552083333333335 1.0922916666666667h0.10708333333333335v0.16520833333333335c-1.63625 -0.6033333333333334 -2.673541666666667 -2.296041666666667 -3.9787500000000002 -3.2843750000000003 -2.456875 -1.8577083333333335 -5.399583333333334 -4.647708333333334 -7.093125000000001 -7.324791666666667 -0.7085416666666667 -1.5366666666666668 -1.474375 -3.009583333333334 -2.2377083333333334 -4.53875v-0.11062500000000001c-0.32625 0.436875 -0.21666666666666667 0.8706250000000001 -0.3797916666666667 1.5314583333333334 -0.7087500000000001 2.732916666666667 -0.16333333333333333 5.850625000000001 -2.6177083333333333 6.833333333333333 -2.7820833333333335 1.1514583333333333 -4.857708333333334 -1.8577083333333335 -5.7283333333333335 -3.224791666666667 -2.7831250000000005 -4.53875 -3.5452083333333335 -12.195208333333333 -1.5827083333333336 -18.375833333333333 0.43583333333333335 -1.3683333333333336 0.4954166666666667 -3.0091666666666668 1.2564583333333335 -4.1016666666666675 -0.16437500000000002 -0.9875 -0.9254166666666667 -1.2575 -1.3660416666666666 -1.8627083333333334 -0.7633333333333334 -1.0341666666666667 -1.4170833333333335 -2.2389583333333336 -2.015 -3.3877083333333338 -1.147916666666667 -2.24375 -1.9650000000000003 -4.924375 -2.836666666666667 -7.330416666666667 -0.3835416666666667 -0.9827083333333334 -0.49312500000000004 -1.969166666666667 -0.8754166666666667 -2.899166666666667 -0.6514583333333334 -1.4200000000000002 -1.8531250000000001 -2.8443750000000003 -2.7795833333333335 -4.100625 -1.2552083333333335 -1.805416666666667 -4.910208333333333 -5.304166666666666 -3.436875 -8.86125Zm17.889791666666667 10.715208333333335c0.145625 0.14604166666666668 0.3216666666666667 0.27395833333333336 0.50375 0.39958333333333335l0.21958333333333332 0.15083333333333335c0.2927083333333334 0.2022916666666667 0.5758333333333333 0.4160416666666667 0.7497916666666667 0.7070833333333333 0.275 0.384375 0.32645833333333335 0.7641666666666668 0.65625 1.1497916666666665 0 1.3147916666666668 -0.38125000000000003 2.18875 -1.1504166666666669 2.733333333333334 0 0 -0.052291666666666674 0.05729166666666667 -0.10604166666666667 0.11104166666666668 -0.43583333333333335 -0.8764583333333335 -0.818125 -1.748125 -1.2575 -2.623541666666667 -0.5408333333333334 -0.7641666666666668 -1.305416666666667 -1.3706250000000002 -1.7458333333333333 -2.2435416666666668h-0.10604166666666667v-0.10979166666666666c0.6585416666666667 -0.1625 1.3110416666666667 -0.27479166666666666 2.236458333333333 -0.27479166666666666Z" stroke-width="2.0833"></path>
</svg>