<svg width="800" height="800" xmlns="http://www.w3.org/2000/svg"><path style="fill:#c2c2c2;fill-opacity:1" d="M486.541 682.265c-54.922-8.717-99.891-15.886-99.932-15.93-.084-.095 115.565-84.125 115.892-84.207.158-.04 83.568 114.394 84.397 115.789.099.166.044.232-.178.218-.176-.012-45.256-7.153-100.179-15.87zm-298.23-90.342c-8.722-55.104-15.84-100.207-15.818-100.228.111-.11 115.951 84.188 115.951 84.378 0 .222-84.006 116.008-84.182 116.029-.051.006-7.23-45.074-15.951-100.179zm193.57 58.495c.009-.207.05-.249.107-.107.052.128.045.282-.014.34-.059.06-.101-.045-.093-.233zm.889-8.353c.009-.207.05-.25.107-.108.051.129.045.282-.014.341-.06.06-.101-.046-.093-.233zm.888-8.354c.01-.207.051-.25.108-.107.051.128.045.281-.014.34-.06.06-.101-.046-.094-.233zm4.09-38.391c.008-.208.05-.25.107-.108.051.128.045.282-.014.34-.06.06-.101-.045-.094-.232zm.888-8.354c.01-.207.051-.25.108-.108.051.129.045.282-.014.341-.06.06-.101-.046-.094-.233zm.89-8.354c.008-.207.05-.249.107-.107.05.128.045.281-.014.34-.06.06-.102-.045-.094-.233zm.888-8.354c.009-.207.05-.249.107-.107.052.128.045.282-.014.34-.059.06-.1-.045-.093-.233zm4.089-38.391c.009-.207.05-.25.107-.107.052.128.045.281-.014.34-.059.06-.1-.046-.093-.233zm226.12-1.03c0-.037.14-.177.31-.31.282-.222.289-.216.067.066-.232.296-.378.39-.378.244zm-24.003-82.1c-12.172-37.455-22.131-68.177-22.131-68.27 0-.143 136.467-44.61 136.54-44.49.03.05-92.071 180.657-92.186 180.77-.05.05-10.05-30.555-22.223-68.01zm-103.287 9.028c.63-.635 1.186-1.155 1.235-1.155.048 0-.427.52-1.057 1.155-.63.635-1.185 1.155-1.234 1.155-.049 0 .426-.52 1.056-1.155zm-7.11-4.621c.63-.636 1.185-1.156 1.233-1.156.05 0-.426.52-1.056 1.156-.63.635-1.185 1.155-1.234 1.155-.05 0 .426-.52 1.056-1.155zm16.533-4.621c.63-.636 1.185-1.156 1.234-1.156.049 0-.427.52-1.057 1.156-.63.635-1.185 1.155-1.234 1.155-.049 0 .427-.52 1.057-1.155zm-7.112-4.622c.63-.635 1.186-1.155 1.235-1.155.049 0-.427.52-1.057 1.155-.63.636-1.185 1.156-1.234 1.156-.049 0 .427-.52 1.056-1.156zm16.623-4.71c.679-.684 1.275-1.244 1.323-1.244.05 0-.466.56-1.146 1.244-.679.685-1.274 1.244-1.323 1.244-.05 0 .466-.56 1.146-1.244zm-7.023-4.71c.63-.635 1.186-1.155 1.235-1.155.049 0-.427.52-1.057 1.155-.63.636-1.185 1.156-1.234 1.156-.049 0 .427-.52 1.056-1.156zm16.534-4.621c.63-.635 1.185-1.155 1.234-1.155.049 0-.427.52-1.056 1.155-.63.635-1.186 1.155-1.235 1.155-.049 0 .427-.52 1.057-1.155zm-7.111-4.621c.63-.636 1.185-1.155 1.234-1.155.049 0-.427.52-1.057 1.155-.63.635-1.185 1.155-1.234 1.155-.049 0 .427-.52 1.057-1.155zm16.533-4.621c.63-.636 1.185-1.156 1.234-1.156.05 0-.426.52-1.056 1.156-.63.635-1.186 1.155-1.234 1.155-.05 0 .426-.52 1.056-1.155zm-7.022-4.71c.679-.685 1.275-1.245 1.324-1.245.048 0-.467.56-1.146 1.245-.68.684-1.275 1.244-1.324 1.244-.05 0 .467-.56 1.146-1.244zm16.533-4.622c.68-.684 1.275-1.244 1.324-1.244.049 0-.467.56-1.146 1.244-.68.685-1.275 1.245-1.324 1.245-.049 0 .467-.56 1.146-1.245zm-7.022-4.71c.63-.635 1.185-1.155 1.234-1.155.049 0-.426.52-1.056 1.155-.63.636-1.186 1.156-1.235 1.156-.048 0 .427-.52 1.057-1.156zM416 406.954c0-.037.14-.177.311-.311.282-.222.288-.215.067.067-.232.296-.378.39-.378.244Zm12.978-2.133c0-.037.14-.177.31-.311.283-.221.29-.215.068.067-.232.296-.378.39-.378.244zm-9.956-1.244c0-.037.14-.177.311-.312.282-.22.289-.214.067.068-.232.296-.378.39-.378.244zm131.2-1.622c.63-.635 1.186-1.155 1.234-1.155.05 0-.426.52-1.056 1.155-.63.636-1.185 1.155-1.234 1.155-.05 0 .426-.52 1.056-1.155zM432 401.444c0-.037.14-.177.311-.311.282-.221.288-.215.067.067-.232.296-.378.39-.378.244Zm111.111-4.11c.63-.635 1.185-1.155 1.234-1.155.05 0-.426.52-1.056 1.155-.63.635-1.185 1.155-1.234 1.155-.05 0 .426-.52 1.056-1.155zm16.533-4.621c.63-.636 1.186-1.156 1.235-1.156.049 0-.427.52-1.057 1.156-.63.635-1.185 1.155-1.234 1.155-.049 0 .427-.52 1.056-1.155zm-7.11-4.621c.53-.538 1.005-.978 1.054-.978.049 0-.346.44-.877.978-.531.537-1.006.977-1.054.977-.05 0 .345-.44.876-.977zm-97.956-11.887c0-.037.14-.177.31-.311.283-.221.29-.215.068.067-.232.296-.378.39-.378.244zm-9.956-1.244c0-.037.14-.177.311-.311.282-.221.289-.215.067.067-.232.296-.378.39-.378.244zm12.978-2.133c0-.037.14-.177.311-.311.282-.221.288-.215.067.067-.232.296-.378.39-.378.244zm-9.956-1.244c0-.037.14-.177.312-.311.282-.221.288-.215.067.067-.233.296-.379.39-.379.244zM159.956 348.57c-37.521-12.185-68.221-22.202-68.222-22.261-.001-.138 180.614-92.116 180.706-92.025.049.049-43.799 135.228-44.219 136.325-.024.063-30.743-9.855-68.265-22.04zm298.355 10.039c0-.037.14-.177.311-.311.282-.221.288-.215.067.067-.232.296-.378.39-.378.244zm1.6-1.778c0-.037.14-.177.311-.31.282-.222.288-.215.067.066-.232.296-.378.39-.378.244zm3.378-3.732c0-.037.14-.177.311-.311.282-.221.288-.215.067.067-.232.296-.378.39-.378.244zm1.6-1.778c0-.036.14-.176.311-.31.282-.222.288-.215.067.067-.232.296-.378.39-.378.243zm15.289-3.732c0-.037.14-.177.31-.311.283-.221.29-.215.068.067-.232.296-.378.39-.378.244zm-10.311-1.777c0-.037.14-.177.31-.311.283-.222.289-.215.068.067-.232.296-.378.39-.378.244zm13.333-1.6c0-.037.14-.177.311-.311.282-.221.288-.215.067.067-.232.296-.378.39-.378.244zm-11.733-.178c0-.037.14-.177.31-.31.283-.222.289-.216.068.066-.232.296-.378.39-.378.244zm3.377-3.732c0-.037.14-.177.312-.311.282-.221.288-.215.067.067-.233.296-.379.39-.379.244zm1.6-1.778c0-.037.14-.177.312-.31.282-.222.288-.216.067.066-.233.296-.379.39-.379.244zm4.978-5.51c0-.036.14-.176.311-.31.282-.222.289-.215.067.066-.232.297-.378.39-.378.244zm1.6-1.777c0-.037.14-.177.311-.311.282-.221.289-.215.067.067-.232.296-.378.39-.378.244zm-405.356-1.133c-.22-.281-.215-.288.067-.067.171.134.311.274.311.311 0 .147-.146.052-.378-.244zm408.734-2.6c0-.036.14-.176.311-.31.282-.222.288-.215.067.067-.232.296-.378.39-.378.244zm1.6-1.777c0-.037.14-.177.311-.31.282-.222.288-.216.067.066-.232.296-.378.39-.378.244Zm4.978-5.51c0-.037.14-.177.31-.31.283-.222.29-.216.068.066-.232.296-.378.39-.378.244zm1.6-1.777c0-.037.14-.177.31-.311.283-.221.29-.215.068.067-.232.296-.378.39-.378.244zm14.222-2.844c0-.037.14-.177.311-.311.282-.221.288-.215.067.067-.232.296-.378.39-.378.244zm-10.844-.889c0-.037.14-.176.31-.31.283-.222.289-.215.068.066-.232.297-.378.39-.378.244zm1.6-1.777c0-.037.14-.177.31-.311.283-.221.289-.215.068.067-.232.296-.378.39-.378.244zm12.266-.711c0-.037.14-.177.311-.311.282-.221.289-.215.067.067-.232.296-.378.39-.378.244zm-8.889-3.022c0-.036.14-.176.311-.31.282-.222.289-.215.068.067-.233.296-.379.39-.379.243zm1.6-1.777c0-.037.14-.177.311-.31.282-.222.289-.216.068.066-.233.296-.379.39-.379.244zm4.978-5.51c0-.037.14-.177.311-.31.282-.222.288-.216.067.066-.232.296-.378.39-.378.244zm1.6-1.777c0-.037.14-.177.311-.311.282-.221.288-.215.067.067-.232.296-.378.39-.378.244zm3.378-3.733c0-.037.14-.177.311-.31.282-.222.288-.215.067.066-.232.296-.378.39-.378.244zm1.6-1.777c0-.037.14-.177.311-.311.282-.221.288-.215.067.067-.232.296-.378.39-.378.244zm4.978-5.51c0-.037.14-.177.31-.311.283-.221.289-.215.068.067-.232.296-.378.39-.378.244zm1.6-1.777c0-.037.14-.177.31-.311.283-.221.289-.215.068.067-.232.296-.378.39-.378.244zm11.733-.356c0-.037.14-.177.311-.31.282-.222.288-.216.067.066-.232.296-.378.39-.378.244zm-8.356-3.377c0-.037.14-.177.312-.31.282-.222.288-.216.067.066-.233.296-.379.39-.379.244zm11.378 0c0-.037.14-.177.311-.31.282-.222.289-.216.067.066-.232.296-.378.39-.378.244zm-9.778-1.777c0-.037.14-.177.312-.311.282-.221.288-.215.067.067-.233.296-.379.39-.379.244zm4.978-5.51c0-.037.14-.177.311-.311.282-.221.289-.215.067.067-.232.296-.378.39-.378.244zm1.6-1.777c0-.037.14-.177.311-.311.282-.222.289-.215.067.067-.232.296-.378.39-.378.244zm3.378-3.733c0-.037.14-.177.311-.311.282-.221.288-.215.067.067-.232.296-.378.39-.378.244zm1.6-1.777c0-.037.14-.177.311-.311.282-.221.288-.215.067.067-.232.296-.378.39-.378.244zm4.978-5.51c0-.037.14-.177.31-.311.283-.221.29-.215.068.067-.232.296-.378.39-.378.244zm1.6-1.778c0-.037.14-.176.31-.31.283-.222.29-.215.068.066-.232.297-.378.39-.378.244zM560 258.364c0-.037.14-.177.311-.31.282-.222.288-.215.067.066-.232.296-.378.39-.378.244Zm-155.2-80.403v-71.762l71.733 71.717c39.454 39.445 71.734 71.737 71.734 71.762 0 .024-32.28.044-71.734.044H404.8Zm-122.325 44.967-.43-.489.488.431c.457.403.57.547.431.547-.031 0-.252-.22-.489-.489zM397.6 93.135c.177-.196.362-.356.41-.356.05 0-.055.16-.232.356-.177.195-.362.355-.41.355-.05 0 .055-.16.232-.355z"/><path style="fill:#9e9e9e;fill-opacity:1" d="M372.777 671.717c-.22-.282-.215-.288.067-.067.297.232.39.378.244.378-.036 0-.177-.14-.31-.31zm-1.03-4.058c.01-.207.051-.25.108-.107.051.128.045.281-.014.34-.06.06-.101-.046-.094-.233zm1.067-10.487c.009-.207.05-.249.107-.107.052.128.045.282-.014.34-.059.06-.1-.045-.093-.233zm8.533-2.132c.01-.207.051-.25.108-.108.051.129.045.282-.014.34-.06.06-.101-.045-.094-.232zm.356-3.377c.009-.207.05-.25.107-.108.052.129.045.282-.014.34-.059.06-.1-.045-.093-.232zm-7.822-4.977c.009-.207.05-.25.107-.107.052.128.045.281-.014.34-.059.06-.101-.046-.093-.233zm8.355 0c.01-.207.05-.25.108-.107.051.128.045.281-.014.34-.06.06-.101-.046-.094-.233zm.356-3.377c.009-.207.05-.25.107-.107.052.128.045.281-.014.34-.059.06-.1-.046-.093-.233zm.533-4.977c.01-.207.05-.249.108-.107.05.128.045.281-.014.34-.06.06-.102-.045-.094-.233zm-8.178-2.133c.01-.207.051-.249.108-.107.051.128.045.282-.014.34-.06.06-.101-.045-.094-.233zm9.067-6.22c.009-.208.05-.25.107-.108.052.128.045.282-.014.34-.059.06-.1-.045-.093-.232zm-8.178-2.489c.01-.207.051-.249.108-.107.051.128.045.281-.014.34-.06.06-.101-.045-.094-.233zm.178-1.777c.009-.207.05-.25.107-.108.052.129.045.282-.014.341-.059.06-.1-.046-.093-.233zm8.533-.711c.01-.207.051-.25.108-.108.051.129.045.282-.014.341-.06.06-.101-.046-.094-.233zm.356-3.377c.009-.207.05-.25.107-.108.052.129.045.282-.014.341-.059.06-.1-.046-.093-.233zm-8-4.621c.009-.207.05-.25.107-.108.052.129.045.282-.014.34-.059.06-.1-.045-.093-.232zm8.533-.356c.01-.207.051-.249.108-.107.051.128.045.281-.014.34-.06.06-.101-.045-.094-.233zm.356-3.377c.009-.207.05-.249.107-.107.052.128.045.281-.014.34-.059.06-.1-.045-.093-.233zm.533-4.977c.01-.207.05-.249.108-.107.05.128.045.282-.014.34-.06.06-.102-.045-.094-.233zm-8.355-1.777c.009-.207.05-.25.107-.107.051.128.045.281-.014.34-.06.06-.101-.046-.093-.233zm8.71-1.6c.01-.207.051-.249.108-.107.051.128.045.282-.014.34-.059.06-.101-.045-.093-.233zm.534-4.976c.009-.207.05-.25.107-.108.052.129.045.282-.014.341-.059.06-.1-.046-.093-.233zm.356-3.377c.009-.207.05-.25.107-.108.051.129.045.282-.014.341-.06.06-.101-.046-.093-.233zm-8.534-.533c.01-.208.05-.25.108-.108.051.128.045.282-.014.34-.06.06-.101-.045-.094-.232zm9.067-4.444c.009-.207.05-.25.107-.107.052.128.045.281-.014.34-.059.06-.1-.046-.093-.233zm.355-3.377c.01-.207.051-.25.108-.107.051.128.045.281-.014.34-.06.06-.101-.046-.094-.233zm-8.355-2.666c.009-.207.05-.25.107-.107.052.128.045.281-.014.34-.059.06-.1-.046-.093-.233zm8.889-2.31c.009-.208.05-.25.107-.108.052.128.045.282-.014.34-.059.06-.1-.045-.093-.233zm113.586-1.141c-.16-.104-.182-.174-.055-.175a.412.412 0 0 1 .321.175c.137.22.075.22-.266 0zm-121.408-7.036c.009-.207.05-.249.107-.107.051.128.045.282-.014.34-.06.06-.101-.045-.093-.233zm8.71-.177c.01-.207.051-.25.108-.108.052.129.045.282-.014.34-.059.06-.101-.045-.093-.232zm.89-8.354c.009-.207.05-.25.107-.107.051.128.045.281-.014.34-.06.06-.101-.046-.093-.233zm-8.712-.178c.01-.207.051-.249.108-.107.051.128.045.281-.014.34-.06.06-.101-.045-.094-.233zm.178-1.777c.01-.207.05-.25.108-.108.051.129.045.282-.014.341-.06.06-.101-.046-.094-.233zm9.067-3.022c.009-.207.05-.249.107-.107.052.128.045.282-.014.34-.059.06-.1-.045-.093-.233zm.355-3.377c.01-.207.051-.249.108-.107.051.128.045.281-.014.34-.06.06-.101-.045-.094-.233zm-8.533-2.31c.01-.207.05-.25.108-.108.05.129.045.282-.014.34-.06.06-.102-.045-.094-.232zm9.067-2.666c.009-.207.05-.25.107-.108.052.129.045.282-.014.34-.059.06-.1-.045-.093-.232zm.355-3.377c.01-.208.051-.25.108-.108.051.128.045.282-.014.34-.06.06-.101-.045-.094-.232zm-8.355-4.444c.009-.207.05-.25.107-.107.052.128.045.281-.014.34-.059.06-.1-.046-.093-.233zm8.889-.533c.009-.207.05-.25.107-.108.052.129.045.282-.014.341-.059.06-.101-.046-.093-.233zm.355-3.377c.01-.207.051-.25.108-.108.051.129.045.282-.014.341-.06.06-.101-.046-.094-.233zm.534-4.977c.009-.207.05-.249.107-.107.051.128.045.281-.014.34-.06.06-.101-.045-.093-.233zm-8.712-1.6c.01-.207.051-.249.108-.107.051.128.045.282-.014.34-.06.06-.101-.045-.094-.232zm9.067-1.777c.01-.207.05-.249.108-.107.05.128.045.281-.014.34-.06.06-.102-.045-.094-.233zm223.42-1.262c.128-.051.281-.045.34.014.06.06-.046.101-.233.094-.207-.01-.25-.051-.108-.108zm-222.887-3.715c.01-.207.051-.249.108-.107.051.128.045.282-.014.34-.06.06-.101-.045-.094-.233zm.342-3.351c0-.141.072-.301.161-.356.089-.055.12.06.068.256-.108.415-.229.468-.229.1zm-8.875-.381c.01-.207.05-.25.108-.107.05.128.045.281-.014.34-.06.06-.102-.046-.094-.233zm1.067-10.487c.009-.207.05-.249.107-.107.052.128.045.282-.014.34-.059.06-.1-.045-.093-.233zm8.889-6.398c.009-.207.05-.25.107-.108.052.129.045.282-.014.341-.059.06-.101-.046-.093-.233zm-8-2.31c.009-.208.05-.25.107-.108.052.128.045.281-.014.34-.059.06-.101-.045-.093-.233zm.177-1.778c.01-.207.051-.25.108-.108.051.129.045.282-.014.341-.06.06-.101-.046-.094-.233zm8.89-6.399c.008-.207.05-.249.107-.107.051.128.045.282-.014.34-.06.06-.101-.045-.094-.233zm-8-2.31c.008-.207.05-.25.107-.108.051.129.045.282-.014.341-.06.06-.101-.046-.094-.233zm8.888-6.399c.01-.207.05-.25.108-.107.051.128.045.281-.014.34-.06.06-.101-.045-.094-.233zm.178-1.777c.009-.207.05-.25.107-.108.052.129.045.282-.014.341-.059.06-.1-.046-.093-.233zm-8-2.31c.009-.208.05-.25.107-.108.052.128.045.281-.014.34-.059.06-.1-.045-.093-.233zm-226.858-4.585c0-.037.14-.177.31-.312.283-.22.289-.214.068.068-.232.296-.378.39-.378.244zm235.747-1.814c.009-.207.05-.25.107-.108.052.128.045.282-.014.34-.059.06-.1-.045-.093-.232zm-7.822-4.088c.009-.207.05-.25.107-.108.052.129.045.282-.014.34-.059.06-.101-.045-.093-.232zm8.889-6.399c.009-.207.05-.25.107-.107.051.128.045.281-.014.34-.06.06-.101-.046-.093-.233zm86.563-3.362c.23-.245.458-.445.507-.445.049 0-.1.2-.329.445-.23.244-.457.444-.506.444-.05 0 .099-.2.328-.444zm-94.386-.726c.01-.207.051-.25.108-.107.051.128.045.281-.014.34-.06.06-.101-.046-.094-.233zm8.89-6.399c.008-.207.05-.249.107-.107.051.128.045.282-.014.34-.06.06-.101-.045-.094-.233zm82.474-1.407c.63-.635 1.185-1.155 1.234-1.155.05 0-.426.52-1.056 1.155-.63.636-1.185 1.156-1.234 1.156-.05 0 .426-.52 1.056-1.156zm11.733 0c.63-.635 1.186-1.155 1.235-1.155.049 0-.427.52-1.057 1.155-.63.636-1.185 1.156-1.234 1.156-.049 0 .427-.52 1.056-1.156zm-102.208-.903c.01-.207.051-.25.108-.108.051.129.045.282-.014.341-.06.06-.101-.046-.094-.233zm.178-1.778c.009-.207.05-.249.107-.107.052.128.045.282-.014.34-.059.06-.1-.045-.093-.233zm99.72-6.561c.63-.635 1.185-1.155 1.234-1.155.048 0-.427.52-1.057 1.155-.63.635-1.185 1.155-1.234 1.155-.049 0 .426-.52 1.056-1.155zm11.822-.089c.679-.684 1.274-1.244 1.323-1.244.05 0-.466.56-1.146 1.244-.679.684-1.275 1.244-1.323 1.244-.05 0 .466-.56 1.146-1.244zm-102.653.252c.009-.207.05-.25.107-.108.052.129.045.282-.014.341-.059.06-.1-.046-.093-.233zm.164-1.674c0-.098.084-.178.188-.178.103 0 .139.08.078.178-.06.098-.145.178-.188.178-.043 0-.078-.08-.078-.178zm100.266-7.91c.63-.635 1.186-1.154 1.235-1.154.048 0-.427.52-1.057 1.155-.63.635-1.185 1.155-1.234 1.155-.049 0 .426-.52 1.056-1.155zm11.734 0c.63-.635 1.185-1.154 1.234-1.154.049 0-.427.52-1.057 1.155-.63.635-1.185 1.155-1.234 1.155-.049 0 .427-.52 1.057-1.155zm-2.311-9.242c.63-.635 1.185-1.155 1.234-1.155.049 0-.427.52-1.057 1.155-.63.636-1.185 1.156-1.234 1.156-.049 0 .427-.52 1.057-1.156zm11.733 0c.63-.635 1.185-1.155 1.234-1.155.049 0-.426.52-1.056 1.155-.63.636-1.186 1.156-1.235 1.156-.048 0 .427-.52 1.057-1.156zM404.71 345.612c0-40.764.02-57.414.046-37 .024 20.415.024 53.768 0 74.117-.025 20.35-.046 3.647-.046-37.117zm117.068 72.695c.63-.635 1.185-1.155 1.234-1.155.049 0-.427.52-1.056 1.155-.63.635-1.186 1.155-1.235 1.155-.049 0 .427-.52 1.057-1.155zm11.822-.089c.68-.684 1.275-1.244 1.324-1.244.049 0-.467.56-1.146 1.244-.68.684-1.275 1.244-1.324 1.244-.049 0 .467-.56 1.146-1.244zm-114.044-2.91c0-.038.14-.178.31-.312.283-.22.289-.215.068.067-.232.296-.378.39-.378.244zm3.022-3.378c0-.037.14-.177.31-.31.283-.222.29-.216.068.066-.232.296-.378.39-.378.244zm108.8-3.043c.63-.636 1.185-1.155 1.234-1.155.049 0-.427.52-1.056 1.155-.63.635-1.186 1.155-1.235 1.155-.049 0 .427-.52 1.057-1.155zm11.733 0c.63-.636 1.185-1.155 1.234-1.155.05 0-.426.52-1.056 1.155-.63.635-1.185 1.155-1.234 1.155-.05 0 .426-.52 1.056-1.155zm-117.511-.334c0-.037.14-.177.311-.31.282-.222.288-.216.067.066-.232.296-.378.39-.378.244zm115.2-8.908c.63-.636 1.185-1.156 1.234-1.156.05 0-.426.52-1.056 1.156-.63.635-1.186 1.155-1.234 1.155-.05 0 .426-.52 1.056-1.155zm11.733 0c.63-.636 1.186-1.156 1.235-1.156.048 0-.427.52-1.057 1.156-.63.635-1.185 1.155-1.234 1.155-.049 0 .426-.52 1.056-1.155zm-130.133.199c0-.037.14-.177.311-.311.282-.221.288-.215.067.067-.232.296-.378.39-.378.244zm3.022-3.377c0-.037.14-.177.311-.311.282-.221.289-.215.067.067-.232.296-.378.39-.378.244zm136.622-6.154c.68-.684 1.275-1.244 1.324-1.244.05 0-.467.56-1.146 1.244-.679.685-1.275 1.244-1.324 1.244-.048 0 .467-.56 1.146-1.244zm-11.644-.089c.63-.635 1.185-1.155 1.234-1.155.05 0-.426.52-1.056 1.155-.63.636-1.186 1.156-1.234 1.156-.05 0 .426-.52 1.056-1.156zm-102.222-6.91c0-.037.14-.177.31-.31.283-.222.29-.215.068.066-.232.296-.378.39-.378.244zm3.022-3.377c0-.037.14-.177.311-.31.282-.222.288-.215.067.066-.232.296-.378.39-.378.244zm-.178-12.086c0-.037.14-.177.311-.31.282-.222.289-.216.067.066-.232.296-.378.39-.378.244zm9.422-11.553c0-.037.14-.177.312-.31.282-.222.288-.216.067.066-.233.296-.379.39-.379.244zm13.334-1.6c0-.036.14-.176.31-.31.283-.222.29-.215.068.067-.232.296-.378.39-.378.243zm-11.734-.177c0-.037.14-.177.312-.311.282-.221.288-.215.067.067-.233.296-.379.39-.379.244zm14.756-3.2c0-.036.14-.176.311-.31.282-.222.288-.215.067.067-.232.296-.378.39-.378.243zm-9.778-2.31c0-.037.14-.177.311-.311.282-.221.289-.215.067.067-.232.296-.378.39-.378.244zm1.6-1.778c0-.036.14-.176.311-.31.282-.222.289-.215.067.067-.232.296-.378.39-.378.243zm3.378-3.732c0-.037.14-.177.311-.311.282-.221.288-.215.067.067-.232.296-.378.39-.378.244Zm1.6-1.777c0-.037.14-.177.311-.311.282-.222.288-.215.067.067-.232.296-.378.39-.378.244zm4.978-5.51c0-.037.14-.177.31-.311.283-.221.29-.215.068.067-.232.296-.378.39-.378.244zm1.6-1.778c0-.037.14-.177.31-.31.283-.222.29-.215.068.066-.232.296-.378.39-.378.244zm3.378-3.732c0-.037.14-.177.31-.311.283-.221.289-.215.068.067-.232.296-.378.39-.378.244zm1.6-1.778c0-.036.14-.176.31-.31.283-.222.289-.215.068.067-.232.296-.378.39-.378.243zm-407.467-4.643c.23-.244.457-.444.506-.444.05 0-.099.2-.328.444-.23.245-.458.445-.507.445-.049 0 .1-.2.329-.445zm412.444-.866c0-.037.14-.177.311-.311.282-.222.289-.215.068.067-.233.296-.379.39-.379.244zm12.267-.711c0-.037.14-.177.311-.311.282-.222.288-.215.067.067-.232.296-.378.39-.378.244zm-10.667-1.067c0-.037.14-.177.311-.31.282-.222.289-.216.068.066-.233.296-.379.39-.379.244zm13.69-2.31c0-.037.14-.177.31-.311.282-.222.289-.215.067.067-.232.296-.378.39-.378.244zm-10.312-1.422c0-.037.14-.177.311-.311.282-.221.288-.215.067.067-.232.296-.378.39-.378.244zm1.6-1.778c0-.037.14-.177.311-.31.282-.222.288-.216.067.066-.232.296-.378.39-.378.244zm4.978-5.51c0-.036.14-.176.311-.31.282-.222.288-.215.067.066-.232.297-.378.39-.378.244zm4.978-5.51c0-.036.14-.176.31-.31.283-.222.289-.215.068.067-.232.296-.378.39-.378.244zm1.6-1.777c0-.037.14-.177.31-.31.283-.222.289-.216.068.066-.232.296-.378.39-.378.244zm3.377-3.732c0-.037.14-.177.312-.311.282-.221.288-.215.067.067-.233.296-.379.39-.379.244zm1.6-1.778c0-.037.14-.177.312-.31.282-.222.288-.216.067.066-.233.296-.379.39-.379.244zM528 294.09c0-.037.14-.177.311-.311.282-.221.288-.215.067.067-.232.296-.378.39-.378.244Zm-9.778-1.778c0-.037.14-.177.311-.31.282-.222.289-.215.067.066-.232.296-.378.39-.378.244zm12.8-1.6c0-.036.14-.176.311-.31.282-.221.289-.215.067.067-.232.296-.378.39-.378.244zm-11.2-.177c0-.037.14-.177.311-.311.282-.221.289-.215.067.067-.232.296-.378.39-.378.244zm3.378-3.733c0-.036.14-.176.311-.31.282-.222.288-.215.067.067-.232.296-.378.39-.378.243zm1.6-1.777c0-.037.14-.177.311-.31.282-.222.288-.216.067.066-.232.296-.378.39-.378.244zm4.978-5.51c0-.037.14-.177.31-.31.283-.222.29-.216.068.066-.232.296-.378.39-.378.244zm1.6-1.777c0-.037.14-.177.31-.311.283-.221.29-.215.068.067-.232.296-.378.39-.378.244zm3.378-3.733c0-.037.14-.177.31-.31.283-.222.289-.216.068.066-.232.296-.378.39-.378.244zm1.6-1.777c0-.037.14-.177.31-.311.283-.221.289-.215.068.067-.232.296-.378.39-.378.244zm4.977-5.51c0-.037.14-.177.311-.311.282-.221.289-.215.068.067-.233.296-.379.39-.379.244zm12.267-1.244c0-.037.14-.177.311-.311.282-.221.288-.215.067.067-.232.296-.378.39-.378.244zm-10.667-.533c0-.037.14-.177.311-.311.282-.221.289-.215.068.067-.233.296-.379.39-.379.244zm13.69-2.844c0-.037.14-.177.31-.311.282-.221.289-.215.067.067-.232.296-.378.39-.378.244zm-10.312-.889c0-.037.14-.177.311-.31.282-.222.288-.216.067.066-.232.296-.378.39-.378.244zm1.6-1.777c0-.037.14-.177.311-.311.282-.221.288-.215.067.067-.232.296-.378.39-.378.244zm14.62-5.443c0-.342.036-.482.08-.311a1.46 1.46 0 0 1 0 .622c-.044.171-.08.031-.08-.311zm-85.998-4.221 71.822-.045-71.822-71.85-71.822-71.851 71.867 71.806c39.526 39.493 71.866 71.866 71.866 71.94 0 .073-32.34.113-71.866.089l-71.867-.044z"/><path style="fill:#7a7a7a;fill-opacity:1" d="M204.267 705.91c0-.038.14-.178.31-.312.283-.22.289-.214.068.067-.232.296-.378.39-.378.244zm396.123-1.978c.004-.293.044-.391.089-.218.045.173.042.413-.007.533-.049.12-.086-.021-.082-.315zm-13.457-5.776c.06-.098.145-.178.189-.178.043 0 .078.08.078.178 0 .098-.085.178-.188.178-.104 0-.14-.08-.079-.178zm-214.297-38.85c.01-.208.051-.25.108-.108.051.128.045.282-.014.34-.06.06-.101-.045-.094-.233zm8.534-3.022c.009-.207.05-.25.107-.108.051.129.045.282-.014.341-.06.06-.101-.046-.093-.233zm-7.467-7.465c.009-.207.05-.25.107-.108.052.129.045.282-.014.341-.059.06-.1-.046-.093-.233zm8.355-.889c.01-.207.051-.25.108-.107.051.128.045.281-.014.34-.06.06-.101-.046-.094-.233zm-7.466-7.82c.009-.207.05-.25.107-.108.052.129.045.282-.014.34-.059.06-.1-.045-.093-.232zm8.355-.534c.01-.207.051-.249.108-.107.051.128.045.282-.014.34-.06.06-.101-.045-.094-.233zm-8.177-1.244c.009-.207.05-.249.107-.107.051.128.045.281-.014.34-.06.06-.101-.045-.093-.233zm8.71-3.732c.01-.207.051-.25.108-.108.052.129.045.282-.014.341-.059.06-.101-.046-.093-.233zm.356-3.377c.01-.207.051-.25.108-.108.051.129.045.282-.014.341-.06.06-.101-.046-.094-.233zm-8.178-1.6c.01-.207.051-.25.108-.107.051.128.045.281-.014.34-.06.06-.101-.046-.094-.233zm8.712-3.377c.009-.207.05-.25.107-.107.051.128.045.281-.014.34-.06.06-.101-.046-.093-.233zm.355-3.377c.01-.207.05-.25.108-.107.051.128.045.281-.014.34-.06.06-.102-.046-.094-.233zm-8-3.733c.01-.207.05-.249.108-.107.051.128.045.282-.014.34-.06.06-.102-.045-.094-.233zm8.533-1.244c.01-.207.051-.249.108-.107.051.128.045.282-.014.34-.06.06-.101-.045-.094-.233zm.356-3.377c.009-.207.05-.249.107-.107.052.128.045.282-.014.34-.059.06-.1-.045-.093-.233zm.533-4.976c.01-.207.051-.25.108-.108.051.129.045.282-.014.34-.06.06-.101-.045-.094-.232zm-8.355-.89c.009-.206.05-.248.107-.106.052.128.045.281-.014.34-.059.06-.1-.046-.093-.233zm8.71-2.487c.01-.207.052-.25.108-.108.052.129.045.282-.014.34-.059.06-.1-.045-.093-.232zm.534-4.977c.01-.207.05-.25.108-.107.051.128.045.281-.014.34-.06.06-.101-.046-.094-.233zm-8.178-3.022c.01-.207.051-.249.108-.107.051.128.045.282-.014.34-.06.06-.101-.045-.094-.233zm8.534-.355c.009-.207.05-.25.107-.107.052.128.045.281-.014.34-.059.06-.1-.046-.093-.233zm.533-4.977c.01-.207.05-.249.108-.107.051.128.045.281-.014.34-.06.06-.102-.045-.094-.233zm-8-5.154c.01-.207.05-.25.108-.108.051.129.045.282-.014.341-.06.06-.102-.046-.094-.233zm8.889-3.2c.009-.207.05-.249.107-.107.052.128.045.282-.014.34-.059.06-.1-.045-.093-.232zm.533-4.976c.01-.207.051-.25.108-.108.051.129.045.282-.014.341-.06.06-.101-.046-.094-.233zm-8.533-.533c.009-.207.05-.25.107-.108.052.129.045.282-.014.34-.059.06-.1-.045-.093-.232zm.178-1.778c.009-.207.05-.249.107-.107.052.128.045.281-.014.34-.059.06-.1-.045-.093-.233zm8.71-1.066c.01-.207.052-.25.108-.108.052.129.045.282-.014.341-.059.06-.1-.046-.093-.233zm.534-4.977c.01-.207.05-.249.108-.107.051.128.045.281-.014.34-.06.06-.101-.045-.094-.233zm-8.355-2.666c.009-.207.05-.25.107-.107.052.128.045.281-.014.34-.059.06-.101-.046-.093-.233zm8.71-.71c.01-.208.052-.25.108-.108.052.128.045.281-.014.34-.059.06-.1-.045-.093-.233zm.534-4.978c.01-.207.05-.249.108-.107.051.128.045.282-.014.34-.06.06-.102-.045-.094-.233zm.356-3.377c.009-.207.05-.249.107-.107.052.128.045.282-.014.34-.059.06-.101-.045-.093-.233zm-8.534-1.421c.01-.208.051-.25.108-.108.051.128.045.282-.014.34-.06.06-.101-.045-.094-.232zm9.067-3.555c.009-.207.05-.25.107-.108.052.129.045.282-.014.341-.059.06-.1-.046-.093-.233zm.356-3.377c.009-.207.05-.25.107-.108.051.129.045.282-.014.341-.06.06-.101-.046-.093-.233zm-8.356-3.555c.009-.207.05-.25.107-.107.052.128.045.281-.014.34-.059.06-.1-.046-.093-.233zm8.889-1.422c.009-.207.05-.25.107-.107.052.128.045.281-.014.34-.059.06-.1-.046-.093-.233zm.355-3.377c.01-.207.051-.25.108-.107.051.128.045.281-.014.34-.06.06-.101-.046-.094-.233zm.534-4.977c.009-.207.05-.249.107-.107.052.128.045.282-.014.34-.059.06-.1-.045-.093-.233zm-8.711-.71c.009-.208.05-.25.107-.108.052.128.045.282-.014.34-.059.06-.101-.045-.093-.233zm9.6-7.643c.009-.207.05-.25.107-.108.051.129.045.282-.014.34-.059.06-.101-.045-.093-.232zm-8.711-1.067c.009-.207.05-.249.107-.107.051.128.045.281-.014.34-.06.06-.101-.045-.093-.233zm.177-1.777c.01-.207.051-.25.108-.108.051.129.045.282-.014.341-.06.06-.101-.046-.094-.233zm.89-8.71c.008-.206.05-.249.107-.107.051.129.045.282-.014.34-.06.06-.101-.045-.094-.232zm.177-1.777c.009-.207.05-.249.107-.107.052.128.045.282-.014.34-.059.06-.1-.045-.093-.233zm.889-8.709c.009-.207.05-.25.107-.107.052.128.045.281-.014.34-.059.06-.1-.046-.093-.233zm8.355-1.955c.01-.207.051-.25.108-.107.051.128.045.281-.014.34-.06.06-.101-.046-.094-.233zm-7.288-8.531c.009-.208.05-.25.107-.108.051.128.045.282-.014.34-.06.06-.101-.045-.093-.232zm8.355-1.956c.01-.207.05-.249.108-.107.051.128.045.282-.014.34-.06.06-.102-.045-.094-.233zm-7.289-8.531c.01-.207.05-.25.108-.107.051.128.045.281-.014.34-.06.06-.101-.046-.094-.233zm8.356-1.955c.009-.207.05-.25.107-.108.052.129.045.282-.014.341-.059.06-.1-.046-.093-.233zm-7.29-8.532c.01-.207.052-.249.108-.107.052.128.045.282-.014.34-.059.06-.1-.045-.093-.233zm8.179-.177c.009-.207.05-.25.107-.108.052.129.045.282-.014.341-.059.06-.101-.046-.093-.233zm.177-1.778c.01-.207.051-.249.108-.107.051.128.045.282-.014.34-.06.06-.101-.045-.094-.233zm-7.466-6.754c.009-.207.05-.249.107-.107.052.128.045.281-.014.34-.059.06-.1-.045-.093-.233zm.178-1.777c.009-.207.05-.25.107-.108.051.129.045.282-.014.341-.06.06-.101-.046-.093-.233zm8.177-.178c.01-.207.051-.249.108-.107.051.128.045.281-.014.34-.06.06-.101-.045-.094-.233zm87.986-2.829c.63-.635 1.186-1.155 1.235-1.155.048 0-.427.52-1.057 1.155-.63.636-1.185 1.155-1.234 1.155-.049 0 .426-.52 1.056-1.155zm-7.022-4.532c.68-.684 1.275-1.244 1.324-1.244.049 0-.467.56-1.146 1.244-.68.684-1.275 1.244-1.324 1.244-.049 0 .467-.56 1.146-1.244zm-88.253-1.17c.01-.207.051-.25.108-.108.051.129.045.282-.014.341-.06.06-.101-.046-.094-.233zm8.356-1.955c.009-.207.05-.25.107-.108.052.128.045.282-.014.34-.059.06-.1-.045-.093-.232zm96.43-1.674c.68-.684 1.275-1.244 1.324-1.244.05 0-.467.56-1.146 1.244-.679.684-1.275 1.244-1.324 1.244-.048 0 .467-.56 1.146-1.244zm-7.022-4.532c.63-.636 1.186-1.156 1.234-1.156.05 0-.426.52-1.056 1.156-.63.635-1.185 1.155-1.234 1.155-.05 0 .426-.52 1.056-1.155zm-96.697-2.326c.01-.207.05-.249.108-.107.051.128.045.281-.014.34-.06.06-.102-.045-.094-.233zm113.23-2.473c.63-.636 1.186-1.156 1.235-1.156.049 0-.427.52-1.057 1.156-.63.635-1.185 1.155-1.234 1.155-.049 0 .427-.52 1.057-1.155zm-7.022-4.533c.68-.684 1.275-1.244 1.324-1.244.049 0-.467.56-1.146 1.244-.68.685-1.275 1.244-1.324 1.244-.049 0 .467-.56 1.146-1.244zm16.445-4.71c.63-.635 1.185-1.155 1.234-1.155.049 0-.427.52-1.056 1.155-.63.636-1.186 1.156-1.235 1.156-.049 0 .427-.52 1.057-1.156zm-6.934-4.621c.63-.635 1.186-1.155 1.235-1.155.049 0-.427.52-1.057 1.155-.63.635-1.185 1.155-1.234 1.155-.049 0 .427-.52 1.056-1.155zm16.445-4.71c.68-.684 1.275-1.244 1.324-1.244.049 0-.467.56-1.146 1.244-.68.684-1.275 1.244-1.324 1.244-.049 0 .467-.56 1.146-1.244zm-113.333-2.733c0-.037.14-.177.31-.311.283-.221.289-.215.068.067-.232.296-.378.39-.378.244zm106.31-1.8c.63-.635 1.186-1.155 1.235-1.155.049 0-.427.52-1.057 1.156-.63.635-1.185 1.155-1.234 1.155-.049 0 .427-.52 1.057-1.155zm-103.288-1.577c0-.037.14-.177.31-.311.283-.221.29-.215.068.067-.232.296-.378.39-.378.244zM396.4 315.53c.025-56.576.065-129.18.09-161.342.024-32.162.064 14.128.088 102.866.024 88.738-.016 161.342-.09 161.342-.072 0-.112-46.29-.088-102.866zm9.822 102.443c0-.037.14-.177.311-.31.282-.222.289-.216.067.066-.232.296-.378.39-.378.244zM536 415.82c.63-.636 1.185-1.156 1.234-1.156.05 0-.426.52-1.056 1.156-.63.635-1.186 1.155-1.234 1.155-.05 0 .426-.52 1.056-1.155zm-126.756-1.223c0-.037.14-.177.312-.31.282-.222.288-.216.067.066-.233.296-.379.39-.379.244zm119.734-3.31c.679-.684 1.275-1.244 1.324-1.244.048 0-.467.56-1.146 1.244-.68.685-1.275 1.245-1.324 1.245-.05 0 .467-.56 1.146-1.245zm-116.711-.067c0-.037.14-.177.31-.31.283-.222.289-.216.068.066-.232.296-.378.39-.378.244zm3.022-3.377c0-.037.14-.177.311-.31.282-.222.288-.216.067.066-.232.296-.378.39-.378.244zm130.133-1.266c.63-.635 1.186-1.155 1.234-1.155.05 0-.426.52-1.056 1.155-.63.636-1.185 1.156-1.234 1.156-.05 0 .426-.52 1.056-1.156zm-118.755.733c0-.037.14-.177.31-.311.283-.221.289-.215.068.067-.232.296-.378.39-.378.244zm-8.356-2.844c0-.037.14-.177.311-.31.282-.222.288-.216.067.066-.232.296-.378.39-.378.244zm11.378-.533c0-.037.14-.177.311-.311.282-.221.288-.215.067.067-.232.296-.378.39-.378.244zm108.8-1.977c.63-.635 1.185-1.155 1.234-1.155.049 0-.426.52-1.056 1.155-.63.636-1.186 1.155-1.235 1.155-.048 0 .427-.52 1.057-1.155zm-117.156-.867c0-.037.14-.177.311-.31.282-.222.289-.216.068.066-.233.296-.379.39-.379.244zm11.378-.533c0-.037.14-.177.311-.311.282-.221.288-.215.067.067-.232.296-.378.39-.378.244zm122.222-3.31c.68-.684 1.275-1.244 1.324-1.244.049 0-.467.56-1.146 1.244-.68.684-1.275 1.244-1.324 1.244-.049 0 .467-.56 1.146-1.244zm-119.2-.067c0-.037.14-.177.311-.311.282-.221.289-.215.068.067-.233.296-.379.39-.379.244zm3.023-3.377c0-.037.14-.177.31-.311.283-.221.289-.215.068.067-.232.296-.378.39-.378.244zM548 392.624c.68-.684 1.275-1.244 1.324-1.244.049 0-.467.56-1.146 1.244-.68.684-1.275 1.244-1.324 1.244-.049 0 .467-.56 1.146-1.244zm-119.2.11c0-.036.14-.176.311-.31.282-.222.288-.215.067.067-.232.296-.378.39-.378.243zm12.978-2.31c0-.037.14-.177.31-.311.283-.221.29-.215.068.067-.232.296-.378.39-.378.244zm-9.956-1.067c0-.036.14-.176.311-.31.282-.222.289-.215.067.067-.232.296-.378.39-.378.243zm132.622-1.443c.63-.636 1.186-1.156 1.235-1.156.049 0-.427.52-1.057 1.156-.63.635-1.185 1.155-1.234 1.155-.049 0 .427-.52 1.056-1.155zm-119.644-.867c0-.037.14-.177.311-.311.282-.221.288-.215.067.067-.232.296-.378.39-.378.244zm-9.956-1.067c0-.036.14-.176.312-.31.282-.222.288-.215.067.066-.233.297-.379.39-.379.244zm3.023-3.377c0-.036.14-.176.31-.31.283-.222.289-.215.068.066-.232.297-.378.39-.378.244zm3.022-3.377c0-.037.14-.176.311-.31.282-.222.288-.215.067.066-.232.297-.378.39-.378.244zm3.022-3.377c0-.037.14-.177.311-.31.282-.222.288-.215.067.066-.232.296-.378.39-.378.244zm11.378-.533c0-.037.14-.177.311-.31.282-.222.288-.216.067.066-.232.296-.378.39-.378.244zm-8.356-2.844c0-.037.14-.177.311-.31.282-.222.289-.216.068.066-.233.296-.379.39-.379.244zm11.378-.533c0-.037.14-.177.311-.31.282-.222.288-.216.067.066-.232.296-.378.39-.378.244zm3.022-3.377c0-.037.14-.177.311-.31.282-.222.289-.216.068.066-.233.296-.379.39-.379.244zm3.023-3.377c0-.037.14-.177.31-.311.283-.221.289-.215.068.067-.232.296-.378.39-.378.244zm3.022-3.377c0-.037.14-.177.31-.311.283-.221.29-.215.068.067-.232.296-.378.39-.378.244zm3.022-3.377c0-.037.14-.177.311-.311.282-.221.288-.215.067.067-.232.296-.378.39-.378.244zm-11.2-.71c0-.038.14-.178.311-.312.282-.221.288-.215.067.067-.232.296-.378.39-.378.244zm4.978-5.51c0-.038.14-.178.31-.312.283-.221.29-.215.068.067-.232.296-.378.39-.378.244zm1.6-1.778c0-.037.14-.177.31-.311.283-.221.29-.215.068.067-.232.296-.378.39-.378.244zm3.378-3.733c0-.037.14-.177.31-.31.283-.222.289-.216.068.066-.232.296-.378.39-.378.244zm11.733 0c0-.037.14-.177.311-.31.282-.222.288-.216.067.066-.232.296-.378.39-.378.244zm-10.133-1.777c0-.037.14-.177.31-.311.283-.221.289-.215.068.067-.232.296-.378.39-.378.244zm13.155-1.6c0-.037.14-.177.311-.31.282-.222.288-.216.067.066-.232.296-.378.39-.378.244zm3.022-3.377c0-.037.14-.177.311-.31.282-.222.289-.216.068.066-.233.296-.379.39-.379.244zm-11.2-.533c0-.037.14-.177.311-.311.282-.221.289-.215.068.067-.233.296-.379.39-.379.244zm1.6-1.777c0-.037.14-.177.311-.311.282-.222.289-.215.068.067-.233.296-.379.39-.379.244zm12.623-1.067c0-.037.14-.177.31-.31.283-.222.289-.216.068.066-.232.296-.378.39-.378.244zm-9.245-2.666c0-.037.14-.177.311-.31.282-.222.288-.216.067.066-.232.296-.378.39-.378.244zm12.267-.71c0-.038.14-.178.31-.312.283-.221.29-.215.068.067-.232.296-.378.39-.378.244zm-10.667-1.067c0-.037.14-.177.311-.311.282-.221.288-.215.067.067-.232.296-.378.39-.378.244zm13.689-2.31c0-.038.14-.178.311-.312.282-.221.288-.215.067.067-.232.296-.378.39-.378.244Zm-8.711-3.2c0-.037.14-.177.311-.311.282-.221.288-.215.067.067-.232.296-.378.39-.378.244zm11.733-.178c0-.037.14-.177.311-.31.282-.222.289-.216.067.066-.232.296-.378.39-.378.244zm-10.133-1.6c0-.036.14-.176.311-.31.282-.222.288-.215.067.067-.232.296-.378.39-.378.243zm230.18-.058c.22-.043.54-.041.71.004.17.044-.01.08-.401.077-.391-.002-.53-.038-.31-.08zm-226.802-3.674c0-.037.14-.177.31-.311.283-.221.289-.215.068.067-.232.296-.378.39-.378.244zm1.6-1.777c0-.037.14-.177.31-.311.283-.222.289-.215.068.067-.232.296-.378.39-.378.244zm12.622-1.245c0-.036.14-.176.311-.31.282-.222.288-.215.067.066-.232.297-.378.39-.378.244zm3.022-3.377c0-.037.14-.176.311-.31.282-.222.288-.215.067.066-.232.297-.378.39-.378.244zm-10.667-.888c0-.037.14-.177.312-.311.282-.221.288-.215.067.067-.233.296-.379.39-.379.244zm1.6-1.778c0-.037.14-.177.312-.31.282-.222.288-.216.067.066-.233.296-.379.39-.379.244zm12.09-.71c0-.038.14-.178.31-.312.282-.22.289-.214.068.067-.233.296-.379.39-.379.244zm-8.712-3.022c0-.037.14-.177.311-.311.282-.221.289-.215.067.067-.232.296-.378.39-.378.244zm11.734-.356c0-.037.14-.177.31-.31.283-.222.289-.216.068.066-.232.296-.378.39-.378.244zm-10.134-1.422c0-.036.14-.176.311-.31.282-.222.289-.215.067.066-.232.297-.378.39-.378.244zm13.156-1.955c0-.037.14-.177.31-.31.283-.222.29-.216.068.066-.232.296-.378.39-.378.244zM508.8 302.8c0-.037.14-.177.311-.311.282-.221.288-.215.067.067-.232.296-.378.39-.378.244zm12.8-1.6c0-.037.14-.177.311-.31.282-.222.288-.216.067.066-.232.296-.378.39-.378.244zm-11.2-.177c0-.037.14-.177.311-.312.282-.22.288-.214.067.068-.232.296-.378.39-.378.244zm14.222-3.2c0-.037.14-.177.311-.31.282-.222.289-.216.067.066-.232.296-.378.39-.378.244zm-9.244-2.31c0-.037.14-.177.31-.311.283-.221.29-.215.068.067-.232.296-.378.39-.378.244zm1.6-1.778c0-.037.14-.177.31-.31.283-.222.29-.216.068.066-.232.296-.378.39-.378.244zm3.378-3.732c0-.037.14-.177.31-.311.283-.221.289-.215.068.067-.232.296-.378.39-.378.244zm1.6-1.778c0-.037.14-.176.31-.31.283-.222.289-.215.068.066-.232.297-.378.39-.378.244zm13.155-2.132c0-.037.14-.177.311-.312.282-.22.288-.214.067.068-.232.296-.378.39-.378.244zm-8.178-3.378c0-.036.14-.176.311-.31.282-.222.289-.215.068.067-.233.296-.379.39-.379.243zm11.2 0c0-.036.14-.176.311-.31.282-.222.289-.215.068.067-.233.296-.379.39-.379.243zm-9.6-1.777c0-.037.14-.177.311-.31.282-.222.289-.216.068.066-.233.296-.379.39-.379.244zm12.623-1.6c0-.036.14-.176.31-.31.283-.222.289-.215.068.067-.232.296-.378.39-.378.243zm-9.245-2.132c0-.037.14-.177.311-.311.282-.222.288-.215.067.067-.232.296-.378.39-.378.244zm12.267-1.245c0-.036.14-.176.31-.31.283-.222.29-.215.068.066-.232.297-.378.39-.378.244zm-10.667-.533c0-.037.14-.177.311-.31.282-.222.288-.216.067.066-.232.296-.378.39-.378.244zm13.689-2.844c0-.036.14-.176.311-.31.282-.222.288-.215.067.066-.232.297-.378.39-.378.244zm-8.711-2.666c0-.037.14-.177.311-.31.282-.222.288-.216.067.066-.232.296-.378.39-.378.244zm11.733-.71c0-.038.14-.177.311-.312.282-.22.289-.214.067.067-.232.297-.378.39-.378.244zm-10.133-1.067c0-.037.14-.177.311-.311.282-.221.288-.215.067.067-.232.296-.378.39-.378.244zm3.378-3.733c0-.036.14-.176.31-.31.283-.222.289-.215.068.067-.232.296-.378.39-.378.243zm1.6-1.777c0-.037.14-.177.31-.311.283-.221.289-.215.068.067-.232.296-.378.39-.378.244zm-102.356-4.687c19.531-.025 51.491-.025 71.022 0 19.531.025 3.551.045-35.51.045-39.063 0-55.043-.02-35.512-.045zm118-.467c0-.037.14-.177.311-.311.282-.221.288-.215.067.067-.232.296-.378.39-.378.244zm-8.267-15.263-9.244-9.287 9.289 9.242c8.634 8.59 9.369 9.332 9.244 9.332-.025 0-4.205-4.18-9.29-9.287zM404.71 177.916c0-39.64.02-55.856.046-36.036.024 19.82.024 52.252 0 72.072-.025 19.82-.046 3.604-.046-36.036zm-4.21-85.969c.128-.051.282-.045.34.014.06.06-.045.101-.233.093-.207-.008-.249-.05-.107-.107z"/><path style="fill:#575757;fill-opacity:1" d="M204.089 692.401c0-.037.14-.177.311-.31.282-.222.288-.216.067.066-.232.296-.378.39-.378.244zm182.044-25.95c0-.036.14-.176.311-.31.282-.222.289-.215.068.067-.233.296-.379.39-.379.243zm92.978-206.198c.63-.635 1.185-1.155 1.234-1.155.05 0-.426.52-1.056 1.155-.63.636-1.185 1.156-1.234 1.156-.05 0 .426-.52 1.056-1.156zM492 458.92c1.268-1.27 2.346-2.31 2.395-2.31.049 0-.949 1.04-2.217 2.31-1.269 1.271-2.346 2.31-2.395 2.31-.049 0 .949-1.039 2.217-2.31zm-3.289-8.087c.63-.635 1.185-1.155 1.234-1.155.05 0-.426.52-1.056 1.155-.63.636-1.185 1.155-1.234 1.155-.05 0 .426-.52 1.056-1.155zM501.6 449.5c1.268-1.27 2.346-2.31 2.395-2.31.049 0-.949 1.04-2.217 2.31-1.269 1.27-2.346 2.31-2.395 2.31-.049 0 .949-1.04 2.217-2.31zm-3.467-7.91c.63-.635 1.186-1.155 1.235-1.155.048 0-.427.52-1.057 1.156-.63.635-1.185 1.155-1.234 1.155-.049 0 .426-.52 1.056-1.155zm12.89-1.332c1.268-1.271 2.345-2.31 2.394-2.31.049 0-.949 1.039-2.217 2.31-1.268 1.27-2.346 2.31-2.395 2.31-.049 0 .949-1.04 2.217-2.31zm-3.379-7.998c.68-.685 1.275-1.245 1.324-1.245.05 0-.467.56-1.146 1.245-.679.684-1.275 1.244-1.324 1.244-.048 0 .467-.56 1.146-1.245zm12.8-1.245c1.269-1.27 2.346-2.31 2.395-2.31.05 0-.948 1.04-2.217 2.31-1.268 1.271-2.346 2.31-2.395 2.31-.049 0 .95-1.039 2.217-2.31zm-3.288-8.087c.63-.635 1.185-1.155 1.234-1.155.049 0-.427.52-1.057 1.155-.63.636-1.185 1.156-1.234 1.156-.049 0 .427-.52 1.057-1.156zm12.888-1.333c1.269-1.27 2.346-2.31 2.395-2.31.05 0-.948 1.04-2.217 2.31-1.268 1.271-2.346 2.31-2.395 2.31-.049 0 .95-1.039 2.217-2.31zm-115.822-.422c0-.037.14-.177.311-.311.282-.222.289-.215.067.067-.232.296-.378.39-.378.244zm-9.066-1.955c0-.037.14-.177.31-.312.283-.22.289-.214.068.068-.232.296-.378.39-.378.244zm12.088-1.422c0-.037.14-.177.312-.311.282-.222.288-.215.067.067-.233.296-.379.39-.379.244zm-9.066-1.956c0-.036.14-.176.31-.31.283-.222.29-.215.068.067-.232.296-.378.39-.378.243zm118.4-2.154c.63-.636 1.185-1.155 1.234-1.155.049 0-.427.52-1.056 1.155-.63.635-1.186 1.155-1.235 1.155-.049 0 .427-.52 1.057-1.155zm12.889-1.333c1.268-1.271 2.346-2.31 2.395-2.31.048 0-.95 1.039-2.218 2.31-1.268 1.27-2.346 2.31-2.394 2.31-.05 0 .948-1.04 2.217-2.31zm-119.2 2.066c0-.037.14-.177.31-.311.283-.222.289-.215.068.067-.232.296-.378.39-.378.244zm-9.067-1.956c0-.036.14-.176.311-.31.282-.222.288-.215.067.066-.232.297-.378.39-.378.244zm12.089-1.421c0-.037.14-.177.311-.312.282-.22.288-.214.067.068-.232.296-.378.39-.378.244zm-9.067-1.956c0-.036.14-.176.311-.31.282-.222.289-.215.067.066-.232.297-.378.39-.378.244zm121.867-4.731c.68-.685 1.275-1.245 1.324-1.245.049 0-.467.56-1.146 1.245-.68.684-1.275 1.244-1.324 1.244-.049 0 .467-.56 1.146-1.244zm12.8-1.245c1.268-1.27 2.346-2.31 2.395-2.31.049 0-.949 1.04-2.217 2.31-1.269 1.271-2.346 2.311-2.395 2.311-.05 0 .949-1.04 2.217-2.31zm-115.111-3.8c0-.036.14-.176.31-.31.283-.221.29-.215.068.067-.232.296-.378.39-.378.244zm-9.067-1.954c0-.037.14-.177.311-.311.282-.221.288-.215.067.067-.232.296-.378.39-.378.244zm120.889-2.333c.63-.635 1.185-1.155 1.234-1.155.05 0-.426.52-1.056 1.155-.63.636-1.186 1.156-1.234 1.156-.05 0 .426-.52 1.056-1.156zm-108.8.91c0-.036.14-.176.311-.31.282-.221.288-.215.067.067-.232.296-.378.39-.378.244zm121.689-2.243c1.268-1.27 2.346-2.31 2.395-2.31.049 0-.949 1.04-2.217 2.31-1.269 1.271-2.346 2.31-2.395 2.31-.05 0 .949-1.039 2.217-2.31zm-130.756.289c0-.037.14-.177.311-.311.282-.221.289-.215.068.067-.233.296-.379.39-.379.244zm12.09-1.422c0-.037.14-.177.31-.311.282-.221.289-.215.067.067-.232.296-.378.39-.378.244zm-9.067-1.955c0-.037.14-.177.31-.311.283-.221.289-.215.068.067-.232.296-.378.39-.378.244zm12.088-1.422c0-.037.14-.177.312-.311.282-.221.288-.215.067.067-.233.296-.379.39-.379.244zm-9.066-1.955c0-.037.14-.177.31-.311.283-.222.29-.215.068.067-.232.296-.378.39-.378.244zm132.66-1.267c.461-.479.865-.835.898-.79.033.044-.344.436-.838.87l-.898.792Zm-120.571-.155c0-.037.14-.177.31-.311.283-.221.289-.215.068.067-.232.296-.378.39-.378.244zm-9.067-1.955c0-.037.14-.177.311-.311.282-.222.288-.215.067.067-.232.296-.378.39-.378.244zm12.089-1.422c0-.037.14-.177.311-.311.282-.221.288-.215.067.067-.232.296-.378.39-.378.244zm-9.067-1.955c0-.037.14-.177.311-.311.282-.222.289-.215.067.067-.232.296-.378.39-.378.244zm12.09-1.422c0-.037.14-.177.31-.311.282-.221.288-.215.067.067-.232.296-.378.39-.378.244zm-1.6-10.31c0-.036.14-.176.31-.31.282-.221.288-.215.067.067-.232.296-.378.39-.378.244zm12.088-1.421c0-.037.14-.177.311-.311.282-.221.288-.215.067.067-.232.296-.378.39-.378.244zm-10.389-.518c.067-.176.167-.274.221-.22.055.055 0 .199-.121.32-.176.173-.196.153-.1-.1zm13.411-2.86c0-.036.14-.176.311-.31.282-.221.289-.215.067.067-.232.296-.378.39-.378.244zm3.022-3.376c0-.037.14-.177.312-.311.282-.221.288-.215.067.067-.233.296-.379.39-.379.244zm-10.044-1.888c.177-.196.362-.356.41-.356.05 0-.055.16-.232.356-.177.195-.362.355-.41.355-.05 0 .055-.16.232-.355zm1.6-1.778c.177-.195.362-.355.41-.355.05 0-.055.16-.232.355-.177.196-.362.356-.41.356-.05 0 .055-.16.232-.356zm11.467.289c0-.037.14-.177.31-.311.283-.221.289-.215.068.067-.232.296-.378.39-.378.244zm-9.778-2.155c.23-.244.457-.444.506-.444.05 0-.099.2-.328.444-.23.245-.458.445-.507.445-.049 0 .1-.2.329-.445zm12.8-1.222c0-.037.14-.177.311-.311.282-.221.288-.215.067.067-.232.296-.378.39-.378.244zm-11.2-.555c.23-.245.457-.445.506-.445.05 0-.099.2-.328.445-.23.244-.458.444-.507.444-.049 0 .1-.2.329-.444zm1.689-1.866c.177-.196.362-.356.41-.356.05 0-.055.16-.232.356-.177.195-.362.355-.411.355-.049 0 .056-.16.233-.355zm12.533-.956c0-.037.14-.177.311-.311.282-.221.288-.215.067.067-.232.296-.378.39-.378.244zm-10.844-.91c.23-.245.457-.445.506-.445.049 0-.099.2-.329.444-.23.245-.457.445-.506.445-.049 0 .099-.2.329-.445zm1.6-1.778c.23-.244.457-.444.506-.444.049 0-.099.2-.329.444s-.457.444-.506.444c-.049 0 .099-.2.329-.444zm1.689-1.866c.177-.196.361-.356.41-.356.05 0-.056.16-.233.356-.177.195-.361.355-.41.355-.05 0 .056-.16.233-.355zm1.6-1.778c.177-.195.361-.355.41-.355.05 0-.056.16-.233.355-.177.196-.361.356-.41.356-.05 0 .056-.16.233-.356zm1.688-1.866c.23-.244.458-.444.507-.444.049 0-.1.2-.329.444-.23.244-.457.444-.506.444-.05 0 .099-.2.328-.444zm1.6-1.777c.23-.245.458-.445.507-.445.049 0-.1.2-.329.445-.23.244-.457.444-.506.444-.05 0 .099-.2.328-.444zm1.69-1.867c.176-.195.361-.355.41-.355.049 0-.056.16-.233.355-.177.196-.362.356-.41.356-.05 0 .055-.16.232-.356zm11.466.111c0-.037.14-.177.311-.311.282-.221.288-.215.067.067-.232.296-.378.39-.378.244Zm-9.778-1.977c.23-.244.458-.444.507-.444.049 0-.1.2-.329.444-.23.245-.458.445-.506.445-.05 0 .099-.2.328-.445zm1.6-1.777c.23-.245.458-.445.507-.445.049 0-.1.2-.329.445-.23.244-.458.444-.506.444-.05 0 .099-.2.328-.444zm11.2.377c0-.037.14-.177.311-.311.282-.221.289-.215.067.067-.232.296-.378.39-.378.244zm-9.51-2.243c.176-.196.36-.356.41-.356.049 0-.056.16-.233.356-.177.195-.362.355-.41.355-.05 0 .055-.16.232-.355zm12.532-1.134c0-.037.14-.177.312-.311.282-.221.288-.215.067.067-.233.296-.379.39-.379.244zm-10.844-.733c.23-.244.458-.444.506-.444.05 0-.099.2-.328.444-.23.245-.458.445-.507.445-.049 0 .1-.2.329-.445zm1.6-1.777c.23-.244.458-.444.506-.444.05 0-.099.2-.328.444-.23.244-.458.444-.507.444-.049 0 .1-.2.329-.444zm12.267-.867c0-.037.14-.177.31-.311.283-.221.289-.215.068.067-.232.296-.378.39-.378.244zm-10.667-.91c.23-.245.458-.445.506-.445.05 0-.099.2-.328.445-.23.244-.458.444-.507.444-.049 0 .1-.2.329-.444zm1.689-1.867c.177-.195.362-.355.41-.355.05 0-.055.16-.232.355-.177.196-.362.356-.411.356-.049 0 .056-.16.233-.356zm12-.6c0-.037.14-.177.311-.311.282-.221.288-.215.067.067-.232.296-.378.39-.378.244zm-10.311-1.266c.23-.244.457-.444.506-.444.05 0-.099.2-.328.444-.23.244-.458.444-.507.444-.049 0 .1-.2.329-.444zm1.6-1.777c.23-.245.457-.445.506-.445.05 0-.099.2-.328.445-.23.244-.458.444-.507.444-.049 0 .1-.2.329-.444zm11.733-.334c0-.037.14-.177.311-.311.282-.221.288-.215.067.067-.232.296-.378.39-.378.244zm-10.044-1.533c.177-.195.361-.355.41-.355.05 0-.056.16-.233.355-.177.196-.361.356-.41.356-.05 0 .056-.16.233-.356zm1.689-1.866c.23-.244.457-.444.506-.444.049 0-.099.2-.329.444-.23.245-.457.444-.506.444-.049 0 .099-.2.329-.444zm1.6-1.777c.23-.245.457-.445.506-.445.049 0-.099.2-.329.445-.23.244-.457.444-.506.444-.049 0 .099-.2.329-.444zm1.6-1.778c.23-.244.457-.444.506-.444.049 0-.099.2-.329.444-.23.245-.457.445-.506.445-.049 0 .099-.2.329-.445zm1.688-1.866c.177-.195.362-.355.411-.355.049 0-.056.16-.233.355-.177.196-.362.356-.41.356-.05 0 .055-.16.232-.356zm1.69-1.866c.229-.245.457-.444.506-.444.049 0-.1.2-.329.444-.23.244-.457.444-.506.444-.05 0 .099-.2.328-.444zm12.266-1.045c0-.037.14-.177.311-.31.282-.222.288-.216.067.066-.232.296-.378.39-.378.244zm-10.667-.733c.23-.244.458-.444.507-.444.049 0-.1.2-.329.444-.23.245-.457.445-.506.445-.05 0 .099-.2.328-.445zm1.69-1.866c.176-.195.361-.355.41-.355.049 0-.056.16-.233.355-.177.196-.362.356-.41.356-.05 0 .055-.16.232-.356zm12-.778c0-.037.14-.177.31-.31.282-.222.289-.216.067.066-.232.296-.378.39-.378.244zm-10.312-1.088c.23-.244.458-.444.507-.444.048 0-.1.2-.33.444-.229.244-.457.444-.506.444-.048 0 .1-.2.33-.444zm1.6-1.777c.23-.245.458-.445.507-.445.048 0-.1.2-.33.445-.229.244-.457.444-.506.444-.048 0 .1-.2.33-.444zm11.733-.512c0-.037.14-.177.312-.31.282-.222.288-.216.067.066-.233.296-.379.39-.379.244zm-10.044-1.355c.177-.195.362-.355.41-.355.05 0-.055.16-.232.355-.177.196-.362.356-.41.356-.05 0 .055-.16.232-.356zm1.6-1.777c.177-.196.362-.356.41-.356.05 0-.055.16-.232.356-.177.195-.362.355-.41.355-.05 0 .055-.16.232-.355zm11.467-.245c0-.037.14-.177.31-.31.283-.222.289-.216.068.066-.232.296-.378.39-.378.244zm-9.778-1.621c.23-.245.457-.445.506-.445.05 0-.099.2-.328.445-.23.244-.458.444-.507.444-.049 0 .1-.2.329-.444zm1.6-1.778c.23-.244.457-.444.506-.444.05 0-.099.2-.328.444-.23.245-.458.445-.507.445-.049 0 .1-.2.329-.445zm11.2.022c0-.037.14-.177.311-.31.282-.222.288-.216.067.066-.232.296-.378.39-.378.244zm-9.511-1.888c.177-.195.362-.355.41-.355.05 0-.055.16-.232.355-.177.196-.362.356-.411.356-.049 0 .056-.16.233-.356zm1.689-1.866c.23-.245.457-.444.506-.444.049 0-.099.2-.329.444s-.457.444-.506.444c-.049 0 .099-.2.329-.444zm10.844.377c0-.037.14-.177.311-.311.282-.221.288-.215.067.067-.232.296-.378.39-.378.244zm-9.244-2.155c.23-.244.457-.444.506-.444.049 0-.099.2-.329.444-.23.245-.457.445-.506.445-.049 0 .099-.2.329-.445zm12.266-1.222c0-.037.14-.177.311-.311.282-.221.289-.215.068.067-.233.296-.379.39-.379.244zm-10.577-.644c.177-.195.361-.355.41-.355.05 0-.056.16-.233.355-.177.196-.361.356-.41.356-.05 0 .056-.16.233-.356zm1.6-1.777c.177-.196.361-.356.41-.356.05 0-.056.16-.233.356-.177.195-.361.355-.41.355-.05 0 .056-.16.233-.355zm1.688-1.866c.23-.245.458-.445.507-.445.049 0-.1.2-.329.445-.23.244-.457.444-.506.444-.05 0 .099-.2.328-.444zm1.6-1.778c.23-.244.458-.444.507-.444.049 0-.1.2-.329.444-.23.245-.457.445-.506.445-.05 0 .099-.2.328-.445zm1.69-1.866c.176-.196.361-.356.41-.356.049 0-.056.16-.233.356-.177.195-.362.355-.41.355-.05 0 .055-.16.232-.355zm1.688-1.866c.23-.245.458-.445.507-.445.049 0-.1.2-.329.445-.23.244-.458.444-.506.444-.05 0 .099-.2.328-.444zm1.6-1.778c.23-.244.458-.444.507-.444.049 0-.1.2-.329.444-.23.245-.458.445-.506.445-.05 0 .099-.2.328-.445zm11.2-.156c0-.037.14-.177.311-.31.282-.222.289-.215.067.066-.232.296-.378.39-.378.244zm-9.51-1.71c.176-.195.36-.355.41-.355.049 0-.056.16-.233.355-.177.196-.362.356-.41.356-.05 0 .055-.16.232-.356zm1.688-1.866c.23-.245.458-.445.506-.445.05 0-.099.2-.328.445-.23.244-.458.444-.507.444-.049 0 .1-.2.329-.444zm10.844.2c0-.038.14-.178.312-.312.282-.22.288-.215.067.067-.233.296-.379.39-.379.244zM536 272.738c.23-.244.458-.444.506-.444.05 0-.099.2-.328.444-.23.245-.458.445-.507.445-.049 0 .1-.2.329-.445zm1.6-1.777c.23-.244.458-.444.506-.444.05 0-.099.2-.328.444-.23.244-.458.444-.507.444-.049 0 .1-.2.329-.444zm10.667.377c0-.037.14-.177.31-.31.283-.222.289-.216.068.066-.232.296-.378.39-.378.244zm-8.978-2.243c.177-.196.362-.356.41-.356.05 0-.055.16-.232.356-.177.195-.362.355-.411.355-.049 0 .056-.16.233-.355zm12-1.134c0-.037.14-.177.311-.31.282-.222.288-.216.067.066-.232.296-.378.39-.378.244zm-10.311-.732c.23-.245.457-.445.506-.445.05 0-.099.2-.328.444-.23.245-.458.445-.507.445-.049 0 .1-.2.329-.444zm1.6-1.778c.23-.244.457-.444.506-.444.05 0-.099.2-.328.444-.23.245-.458.444-.507.444-.049 0 .1-.2.329-.444zm11.733-.867c0-.037.14-.177.311-.31.282-.222.288-.216.067.066-.232.296-.378.39-.378.244zm-10.044-1c.177-.195.361-.355.41-.355.05 0-.056.16-.233.356-.177.195-.361.355-.41.355-.05 0 .056-.16.233-.355zm1.689-1.865c.23-.245.457-.445.506-.445.049 0-.099.2-.329.445-.23.244-.457.444-.506.444-.049 0 .099-.2.329-.444zm11.377-.512c0-.037.14-.177.311-.31.282-.222.289-.216.068.066-.233.296-.379.39-.379.244zm-9.777-1.266c.23-.244.457-.444.506-.444.049 0-.099.2-.329.444-.23.245-.457.445-.506.445-.049 0 .099-.2.329-.445zm1.44-1.636c.13-.215.273-.353.32-.307.047.047-.06.224-.235.392-.306.293-.31.29-.085-.085zm-75.93-95.453L402.934 92.69l70.178 70.117c38.598 38.565 70.178 70.138 70.178 70.162 0 .025-.02.045-.045.045-.024 0-31.604-31.573-70.177-70.162zm-42.044-30.66-26.31-26.35 26.355 26.305c14.495 14.468 26.355 26.325 26.355 26.35 0 .024-.02.045-.044.045-.025 0-11.885-11.858-26.356-26.35z"/><path style="fill:#333;fill-opacity:1" d="M485.511 690.401c-60.671-9.62-110.662-17.621-111.09-17.779-1.118-.41-2.082-1.445-2.41-2.586-.264-.916.018-3.783 11.168-113.27 6.292-61.783 11.41-112.365 11.375-112.405-.036-.041-.092-.041-.124 0-.032.04-42.565 58.58-94.517 130.09-51.953 71.508-94.74 130.366-95.085 130.795-1.572 1.96-4.302 2.13-6.017.376-.3-.306-.673-.852-.83-1.212-.161-.373-7.848-48.474-17.809-111.44l-17.525-110.785.28-.965c.346-1.189 1.295-2.226 2.406-2.63.44-.16 50.277-10.973 110.748-24.028 60.47-13.056 109.982-23.773 110.025-23.816.043-.043-.033-.118-.17-.167-.136-.049-69.2-22.485-153.474-49.858-84.275-27.374-153.573-49.973-153.995-50.22-2.086-1.222-2.42-4.482-.632-6.185.262-.25 45.498-23.38 100.524-51.4 87.528-44.572 100.17-50.96 101.016-51.047.816-.084 1.121-.024 1.953.382.542.266 1.176.736 1.408 1.047.232.31 25.877 44.314 56.989 97.786 31.111 53.473 56.64 97.299 56.732 97.392.102.104.165-61.701.165-161.588V95.13l.497-.951c.908-1.738 3.07-2.564 4.886-1.869.614.235 15.19 14.726 80.344 79.871 57.226 57.219 79.67 79.77 79.867 80.245.43 1.043.35 2.265-.216 3.312-.303.559-20.162 22.887-52.222 58.714-93.68 104.686-98.436 110.01-98.353 110.092.045.045 69.15-22.355 153.568-49.779 129.37-42.026 153.642-49.86 154.477-49.86 1.43 0 2.732.804 3.411 2.108.76 1.459.688 2.241-.408 4.484-2.674 5.468-101.092 198.342-101.455 198.824-.237.316-.864.785-1.393 1.044-.777.38-1.142.455-1.894.391-.758-.064-20.062-8.52-104.184-45.633-56.788-25.055-103.289-45.517-103.334-45.472-.045.045 42.608 58.822 94.785 130.615s94.978 130.79 95.113 131.105c.342.8.3 2.312-.09 3.17-.608 1.337-2.364 2.436-3.789 2.37-.225-.01-50.05-7.89-110.72-17.51zm101.635 7.692c-.192-.5-84.438-116.265-84.58-116.225-.083.023-26.33 19.059-58.327 42.301-40.517 29.431-58.072 42.28-57.83 42.328.588.116 200.331 31.802 200.588 31.82.133.009.2-.091.149-.224zm-340.57-63.899c23.102-31.806 42.013-57.955 42.025-58.108.013-.176-21.196-15.695-58.023-42.454-31.925-23.197-58.111-42.179-58.192-42.181-.081-.002-.103.215-.048.484.054.269 7.182 45.279 15.839 100.022 8.657 54.744 15.787 99.763 15.844 100.042.087.42.144.467.328.267.123-.133 19.125-26.265 42.227-58.072zm191.668-15.583c31.326-22.747 57.1-41.497 57.278-41.665.306-.29-2.073-1.553-49.755-26.417-27.542-14.362-50.186-26.138-50.321-26.17-.135-.031-.246.074-.246.234 0 .361-14.184 133.72-14.338 134.8-.092.653-.066.767.157.68.147-.056 25.898-18.714 57.225-41.462zm-137.24-106.64c5.159-30.686 9.363-55.81 9.342-55.83-.053-.053-133.66 28.163-133.743 28.244-.105.106 114.666 83.466 114.853 83.419.092-.023 4.388-25.148 9.547-55.833zm188.657 51.857c-.197-.268-19.625-27-43.172-59.407-47.76-65.73-43.704-60.171-43.764-59.963-.025.085-1.658 16.018-3.628 35.406-2.218 21.825-3.52 35.315-3.417 35.417.267.267 94.179 49.194 94.263 49.11.042-.042-.085-.295-.282-.563zm-145.027-64.561c49.67-68.366 44.049-60.608 43.966-60.689-.128-.124-69.557 14.948-69.61 15.112-.03.09-3.976 23.52-8.77 52.064a55537.95 55537.95 0 0 1-8.82 52.433c-.09.473-.072.503.162.267.146-.147 19.528-26.781 43.072-59.187zm266.53 20.75c-.041-.121-9.91-30.513-21.93-67.536-12.021-37.023-21.91-67.296-21.977-67.274-.066.022-18.297 17.874-40.513 39.67-30.695 30.114-40.332 39.667-40.14 39.788.499.314 124.156 55.547 124.393 55.56.132.009.208-.085.167-.207zm53.92-93.568c25.404-49.83 46.164-90.624 46.133-90.654-.05-.051-136.844 44.355-136.944 44.454-.024.025 9.969 30.852 22.206 68.506 12.237 37.653 22.287 68.423 22.333 68.377.046-.046 20.868-40.853 46.272-90.682zm-149.247-2.117c20.88-20.49 37.926-37.292 37.88-37.338-.046-.046-31.806 10.22-70.579 22.813-38.772 12.593-70.44 22.95-70.372 23.014.1.095 64.895 28.738 65.059 28.76.026.002 17.131-16.76 38.012-37.249zm-125.97-1.03c0-.066-35.695-61.448-35.786-61.539-.05-.049-105.03 15.551-105.281 15.645-.098.037-.058.117.089.178.39.162 140.687 45.758 140.844 45.773.074.007.134-.018.134-.057zm39.08-30.533 23.306-26.072-23.649-47.512c-13.006-26.132-23.723-47.588-23.815-47.68-.104-.106-.167 27.87-.167 74.113V419.9l.51-.53c.28-.291 10.996-12.262 23.814-26.601zm-178.384-90.432c12.183-37.488 22.13-68.215 22.105-68.284-.051-.141-181.29 92.113-181.29 92.28 0 .228 136.8 44.543 136.917 44.353.064-.105 10.085-30.862 22.268-68.35zm42.355 60.338c30.588-4.546 55.717-8.285 55.841-8.31.202-.04-67.819-118.497-68.048-118.503-.07-.002-43.549 133.565-43.87 134.767-.052.197.017.31.19.31.15 0 25.298-3.718 55.887-8.264zm211.26-54.55c24.786-27.446 45.093-49.975 45.126-50.065.035-.097-28.289-.162-71.077-.162-39.125 0-71.107.06-71.07.134l25.3 50.848 25.232 50.716.711-.784c.391-.431 20.991-23.24 45.778-50.687zm-27.402-130.209c-39.532-39.591-71.939-71.984-72.015-71.984-.076 0-.139 32.393-.139 71.984V249.9h144.03z"/></svg>