<svg xmlns="http://www.w3.org/2000/svg" fill="none" viewBox="0 0 96 96" id="Aws-Api-Gateway--Streamline-Svg-Logos" height="200" width="200">
  <desc>
    Aws Api Gateway Streamline Icon: https://streamlinehq.com
  </desc>
  <path fill="url(#a)" d="M95 1H1v94h94V1Z"></path>
  <path fill="#ffffff" d="M41.0265 66.3681h3.4486v-2.37h-3.4486v2.37Zm5.7986 0h3.525v-2.37h-3.525v2.37Zm-14.1-48.1784-15.275 7.5818v47.1309l15.275 5.1655V18.1897Zm2.35 14.9977v30.8107h3.525v2.37h-3.525v13.347c0 .3816-.1821.7394-.4888.9622-.2021.147-.443.2228-.6862.2228-.1246 0-.2515-.0201-.3737-.0616l-17.625-5.9595c-.4794-.1624-.8013-.615-.8013-1.1234V25.0332c0-.4503.255-.8638.6568-1.0629l17.625-8.7479c.3631-.1813.7943-.16 1.1386.0569.3443.2157.5546.5961.5546 1.0061v14.5319h3.525v2.3701h-3.525Zm17.625 33.1807h3.525v-2.37h-3.525v2.37Zm.0764-33.1807h3.4486v-2.3701h-3.4486v2.3701Zm-5.875 0h3.4486v-2.3701h-3.4486v2.3701Zm-5.875 0h3.4486v-2.3701h-3.4486v2.3701Zm37.5236-7.4159-15.275-7.5818v59.8782l15.275-5.1655V25.7715Zm2.35 47.9841c0 .5084-.3219.961-.8013 1.1234l-17.625 5.9595c-.1222.0415-.2492.0616-.3737.0616-.2432 0-.4841-.0758-.6862-.2228-.3067-.2228-.4888-.5806-.4888-.9622v-13.347h-2.2736v-2.37h2.2736V33.1874h-2.2736v-2.3701h2.2736V16.2854c0-.41.2103-.7904.5546-1.0061.3443-.2169.7743-.2382 1.1386-.0569l17.625 8.7479c.4018.1991.6568.6126.6568 1.0629v48.7224ZM51.4475 40.723l-2.1949-.8509-5.875 15.4054 2.195.8508 5.8749-15.4053Zm7.9583 7.5225c.4594-.4633.4594-1.2134 0-1.6756l-4.7-4.7401-1.6614 1.6756 3.8693 3.9023-3.8693 3.9023 1.6614 1.6756 4.7-4.7401Zm-18.1114 4.7401-4.7-4.7401c-.4595-.4633-.4595-1.2134 0-1.6756l4.7-4.7401 1.6614 1.6756-3.8693 3.9023 3.8693 3.9023-1.6614 1.6756Z"></path>
  <defs>
    <linearGradient id="a" x1="1" x2="9401" y1="9401" y2="1" gradientUnits="userSpaceOnUse">
      <stop stop-color="#b0084d"></stop>
      <stop offset="1" stop-color="#ff4f8b"></stop>
    </linearGradient>
  </defs>
</svg>