<svg xmlns="http://www.w3.org/2000/svg" width="64" height="39" fill="none" viewBox="0 -30 150 91.406"><path d="M0-30h150v91.406H0z" style="fill:#000;stroke-width:0"/><path fill="#f90" d="M122.714 33.33c5.28-.642 16.924-2.026 18.997.644 2.072 2.62-2.319 13.649-4.293 18.544-.592 1.484.691 2.077 2.023.94 8.684-7.32 10.954-22.6 9.178-24.825-1.777-2.175-17.023-4.055-26.3 2.473-1.431 1.038-1.184 2.423.395 2.225"/><path fill="#f90" d="M74.852 60.084c20.28 0 43.865-6.38 60.099-18.396 2.664-1.978.345-4.994-2.369-3.758-18.207 7.714-37.993 11.473-56.003 11.473-26.694 0-52.5-7.368-73.42-19.533-1.827-1.088-3.208.79-1.679 2.176C20.823 49.55 46.431 60.084 74.852 60.084"/><path fill="#252f3e" d="M42.632 3.463c0 1.83.197 3.313.542 4.4a26.5 26.5 0 0 0 1.58 3.56c.246.397.345.793.345 1.139 0 .495-.296.99-.938 1.484l-3.108 2.077c-.444.296-.889.445-1.283.445-.494 0-.987-.248-1.48-.693a15.3 15.3 0 0 1-1.777-2.324 38 38 0 0 1-1.53-2.918q-5.772 6.825-14.506 6.825c-4.145 0-7.45-1.187-9.868-3.56s-3.652-5.54-3.652-9.495c0-4.204 1.48-7.616 4.49-10.187 3.01-2.572 7.007-3.857 12.09-3.857 1.677 0 3.404.148 5.23.395 1.825.248 3.7.643 5.674 1.088v-3.61c0-3.758-.79-6.38-2.32-7.912-1.578-1.533-4.243-2.274-8.042-2.274-1.727 0-3.503.197-5.329.642a39 39 0 0 0-5.329 1.682 14 14 0 0 1-1.727.643c-.345.098-.592.148-.79.148-.69 0-1.036-.494-1.036-1.533v-2.423c0-.791.1-1.385.346-1.73.246-.347.69-.693 1.381-1.04q2.591-1.335 6.217-2.225c2.418-.642 4.985-.94 7.698-.94 5.872 0 10.164 1.336 12.927 4.006 2.714 2.67 4.096 6.726 4.096 12.165V3.463zM22.599 10.98c1.628 0 3.306-.297 5.082-.89 1.776-.594 3.355-1.682 4.687-3.165.79-.94 1.382-1.978 1.678-3.165s.493-2.621.493-4.302V-2.62A41 41 0 0 0 30-3.46a37 37 0 0 0-4.638-.298c-3.306 0-5.724.643-7.352 1.978-1.628 1.336-2.418 3.215-2.418 5.687 0 2.324.592 4.055 1.826 5.242 1.184 1.236 2.911 1.83 5.18 1.83zm39.621 5.34c-.888 0-1.48-.148-1.875-.494-.394-.297-.74-.99-1.036-1.93L47.714-24.327c-.296-.99-.444-1.632-.444-1.978 0-.791.394-1.236 1.184-1.236h4.835c.938 0 1.58.148 1.925.494.395.297.69.99.987 1.929l8.29 32.736 7.697-32.736c.246-.99.542-1.632.937-1.93.395-.296 1.085-.493 1.974-.493h3.947c.938 0 1.579.148 1.974.494.395.297.74.99.937 1.929l7.796 33.132L98.29-25.12c.295-.99.64-1.632.986-1.93.395-.296 1.036-.493 1.925-.493h4.588c.79 0 1.234.395 1.234 1.236 0 .247-.049.494-.099.79a7 7 0 0 1-.345 1.237L94.688 13.948q-.445 1.483-1.037 1.928c-.394.297-1.036.495-1.875.495h-4.243c-.938 0-1.58-.15-1.974-.495-.394-.346-.74-.99-.937-1.978l-7.648-31.895-7.599 31.846c-.247.989-.543 1.632-.938 1.978s-1.085.494-1.973.494zm63.405 1.336c-2.566 0-5.132-.297-7.599-.89-2.467-.594-4.391-1.237-5.674-1.98-.79-.444-1.332-.94-1.53-1.383a3.5 3.5 0 0 1-.296-1.385V9.496c0-1.038.395-1.533 1.135-1.533q.444 0 .888.148c.296.1.74.297 1.234.495a26.8 26.8 0 0 0 5.428 1.73c1.973.396 3.898.594 5.871.594 3.109 0 5.527-.544 7.204-1.632 1.678-1.088 2.566-2.67 2.566-4.698 0-1.384-.444-2.521-1.332-3.461s-2.566-1.78-4.984-2.571l-7.154-2.226c-3.602-1.137-6.267-2.818-7.895-5.044-1.628-2.176-2.467-4.6-2.467-7.17q0-3.116 1.332-5.49c.888-1.581 2.072-2.966 3.553-4.054 1.48-1.137 3.157-1.978 5.131-2.571s4.046-.841 6.217-.841c1.086 0 2.221.05 3.306.198 1.135.148 2.171.346 3.207.544.987.247 1.925.494 2.813.79q1.332.446 2.072.89c.691.397 1.185.792 1.481 1.237q.444.594.444 1.632v2.325c0 1.039-.395 1.583-1.135 1.583-.395 0-1.036-.198-1.875-.594q-4.22-1.928-9.474-1.928c-2.812 0-5.033.445-6.562 1.384-1.53.94-2.319 2.374-2.319 4.402 0 1.384.493 2.57 1.48 3.51s2.812 1.88 5.427 2.72l7.007 2.226c3.553 1.137 6.118 2.72 7.648 4.747s2.27 4.35 2.27 6.923c0 2.126-.444 4.055-1.283 5.736-.888 1.68-2.072 3.165-3.602 4.352-1.53 1.236-3.355 2.126-5.477 2.769-2.22.692-4.54 1.039-7.056 1.039z"/><path d="M7.658 20.149c-.903-.12-1.974-.557-2.695-1.1-1.387-1.046-2.145-3.031-1.918-5.024.15-1.33.587-2.32 1.403-3.184C5.523 9.7 6.88 9.048 8.665 8.809c1.302-.174 3.523-.002 5.447.422l.623.138-.037-1.488c-.04-1.636-.117-2.085-.473-2.79-.55-1.09-1.573-1.578-3.483-1.663-1.58-.07-2.883.174-4.942.926-1.162.425-1.365.443-1.482.136-.087-.23-.088-1.722-.002-1.95.147-.385.695-.712 1.9-1.131C7.89.826 9.194.6 10.89.599c4.126-.003 6.257 1.433 7.036 4.742.098.415.123 1.188.164 5.056.059 5.506.058 5.5.886 7.144.272.541.284.627.123.9-.13.218-1.712 1.304-2.002 1.373-.489.116-1.229-.675-1.893-2.023-.129-.26-.252-.474-.273-.474s-.275.24-.564.533c-1.585 1.606-3.433 2.365-5.69 2.337a15 15 0 0 1-1.018-.038m3.649-2.866c1-.262 1.577-.584 2.258-1.262.893-.89 1.126-1.544 1.202-3.38l.042-.99-.555-.118c-1.665-.355-3.89-.456-4.98-.225-.746.158-1.393.475-1.799.881-.638.638-.869 1.338-.82 2.488.043.975.204 1.432.696 1.97.39.426.896.703 1.479.807.604.109 1.695.033 2.477-.171M37.023 19.732c-.408-.1-.53-.195-.694-.544-.102-.216-.828-3.113-1.81-7.227-.903-3.777-1.657-6.867-1.676-6.867-.02 0-.771 3.086-1.671 6.86-.9 3.772-1.704 7.017-1.786 7.209-.22.509-.34.543-1.922.543-1.532 0-1.693-.044-1.926-.525-.179-.37-5.26-17.1-5.317-17.504-.033-.236-.012-.318.109-.44.14-.14.217-.148 1.466-.148 1.55 0 1.711.046 1.963.562.086.174.953 3.477 1.928 7.341a925 925 0 0 0 1.794 7.055c.013.016.036.016.053 0 .016-.017.774-3.197 1.684-7.067s1.708-7.17 1.773-7.332c.193-.483.441-.556 1.907-.558 1.418-.001 1.617.05 1.833.473.076.15.885 3.448 1.797 7.329s1.684 7.134 1.716 7.23c.053.164.06.166.1.036.025-.077.855-3.286 1.845-7.13.99-3.845 1.863-7.14 1.94-7.321.238-.555.315-.58 1.861-.606 1.308-.022 1.352-.018 1.501.131.124.124.148.212.121.445-.047.414-5.31 17.315-5.477 17.591-.252.415-.443.467-1.777.484-.657.008-1.258 0-1.335-.02M51.6 20.153a20 20 0 0 1-1.61-.348c-1.554-.405-2.39-.819-2.652-1.31-.175-.328-.22-1.61-.069-1.97.1-.238.134-.262.38-.262.155 0 .595.131 1.039.31 1.34.538 2.43.787 3.855.879 2.567.166 4.215-.406 4.808-1.67.158-.338.186-.49.185-1.029 0-.548-.025-.68-.188-.988-.438-.833-1.047-1.148-4.061-2.101-2.303-.728-3.098-1.068-3.888-1.663-.84-.633-1.566-1.731-1.85-2.8-.148-.56-.163-1.769-.029-2.318.733-2.999 4.125-4.768 8.155-4.254 2.11.269 3.682.846 4.09 1.502.144.231.16.345.16 1.11 0 .753-.016.872-.14 1.008-.18.201-.389.168-1.313-.212-1.135-.465-1.99-.634-3.43-.679-1.81-.056-2.81.17-3.5.79-.43.386-.642.825-.693 1.433-.059.7.105 1.188.562 1.671.528.558 1.365.936 3.763 1.7 2.8.892 3.49 1.209 4.334 1.99 1.108 1.027 1.645 2.556 1.445 4.116-.35 2.724-2.42 4.57-5.732 5.106-.806.131-2.723.125-3.62-.011" style="fill:#fff;stroke-width:0" transform="translate(0 -30)scale(2.34375)"/></svg>